<svg width="80" height="80" viewBox="0 0 80 80" fill="none" xmlns="http://www.w3.org/2000/svg">
<path d="M19.6199 76.6667L11.2937 59.4494C5.03547 46.5085 8.70156 31.3381 19.2919 22.5566C25.8843 17.0901 32.174 11.2684 37.9459 4.94169L39.4132 3.33337L42.8251 7.84123C47.035 13.4034 50.2475 19.3179 52.1454 25.3109L19.6199 76.6667Z" fill="url(#paint0_linear_2356_66046)"/>
<path d="M70.4749 24.8088L69.3659 19.2653C63.8847 32.1855 49.8257 39.0508 41.7672 47.966C27.6746 63.5567 19.6201 76.6666 19.6201 76.6666H27.9641C65.0501 76.6666 75.8419 51.6361 70.4749 24.8088Z" fill="#00CC76"/>
<path d="M69.3659 19.2653L67.3446 20.0744C62.3644 22.068 57.2875 23.7947 52.1456 25.3108V25.311C49.0788 26.2153 45.9889 27.0446 42.8824 27.8109C29.5251 31.1059 19.6201 43.1671 19.6201 57.5417V76.6666C19.6203 76.6666 54.299 54.7804 69.3659 19.2653Z" fill="#A5E887"/>
<path fill-rule="evenodd" clip-rule="evenodd" d="M67.3446 20.0744L69.3659 19.2653C69.3546 19.2919 69.3433 19.3185 69.332 19.3452C69.3433 19.3186 69.3547 19.2919 69.366 19.2653L70.475 24.8088C75.842 51.6361 65.0502 76.6666 27.9642 76.6666H19.6202C19.6202 76.6666 19.6202 76.6666 19.6203 76.6665C19.6202 76.6666 19.6201 76.6666 19.6201 76.6666V57.5417C19.6201 43.1671 29.5251 31.1059 42.8824 27.8109C45.9889 27.0446 49.0788 26.2153 52.1456 25.311V25.3108C57.2875 23.7947 62.3644 22.068 67.3446 20.0744Z" fill="url(#paint1_linear_2356_66046)"/>
<defs>
<linearGradient id="paint0_linear_2356_66046" x1="23.9587" y1="22.4306" x2="41.5282" y2="50.6945" gradientUnits="userSpaceOnUse">
<stop stop-color="#1ED5BE"/>
<stop offset="1" stop-color="#00AA95"/>
</linearGradient>
<linearGradient id="paint1_linear_2356_66046" x1="40.0007" y1="40" x2="64.4452" y2="69.7917" gradientUnits="userSpaceOnUse">
<stop stop-color="#A5E887"/>
<stop offset="1" stop-color="#00CC76"/>
</linearGradient>
</defs>
</svg>
