<svg width="80" height="80" viewBox="0 0 80 80" fill="none" xmlns="http://www.w3.org/2000/svg">
<path d="M11.8232 49.0669C11.8514 49.0643 11.8795 49.063 11.9064 49.063C11.8782 49.0643 11.8501 49.0656 11.8232 49.0682V49.0669Z" fill="url(#paint0_linear_2356_66069)"/>
<path d="M28.7498 39.271H27.031C27.031 39.271 9.47884 37.6413 9.58265 40.9442C9.66505 43.5682 9.49854 46.2037 9.09765 48.8156C9.01152 49.3771 8.9668 49.9522 8.9668 50.5379V59.2841V59.5927L8.97787 59.6161C9.03064 60.6257 9.32139 61.6099 9.83227 62.4859L10.9047 64.3248C11.8583 65.96 12.3607 67.8191 12.3607 69.7121V74.8178C12.3607 75.8389 13.1884 76.6665 14.2094 76.6665H34.757C35.778 76.6665 36.6057 75.8389 36.6057 74.8178V69.7131C36.6057 67.8338 37.1995 66.0023 38.3026 64.4806C39.4056 62.9588 39.9994 61.1275 39.9994 59.248V50.5206C39.9993 44.3076 34.9627 39.271 28.7498 39.271Z" fill="url(#paint1_linear_2356_66069)"/>
<path d="M40.0002 50.5201V59.2477C40.0002 60.1883 39.8517 61.1156 39.5651 61.9978C39.2786 62.8815 38.8539 63.7203 38.3034 64.4809C37.2006 66.0022 36.6065 67.8327 36.6065 69.7126V74.8167C36.6065 75.8385 35.7783 76.6668 34.7581 76.6668H14.2093C13.1892 76.6668 12.3609 75.8385 12.3609 74.8167V69.711C12.3609 67.8236 11.8612 65.9706 10.9131 64.3383L12.3609 66.8214H17.5506C19.4006 66.8214 21.0749 66.0712 22.2872 64.8589C23.4995 63.6466 24.2497 61.9723 24.2497 60.1223C24.2497 58.3459 23.5445 56.6416 22.2872 55.3843L19.4275 52.5262C18.7659 51.863 18.8529 50.7647 19.612 50.2141L24.9472 46.3492C26.1339 45.4895 26.7896 44.1316 26.7896 42.7379C26.7896 42.3576 26.7407 41.9744 26.6405 41.5975C26.5791 41.3664 27.0881 39.2705 27.0881 39.2705H28.7506C34.9635 39.2707 40.0002 44.3072 40.0002 50.5201Z" fill="url(#paint2_linear_2356_66069)"/>
<path d="M13.6863 33.5868C15.3504 33.6021 16.7805 34.6689 17.4865 36.218C17.7884 36.8793 17.9585 37.6302 17.9585 38.4232C17.9585 38.4692 17.9585 38.514 17.9572 38.5601L17.8728 42.0123L17.3522 42.2861L12.3624 44.9135C11.1255 45.5645 10.1636 46.5892 9.58423 47.8081L9.29766 38.6522C9.21066 35.8739 11.2112 33.565 13.6863 33.5868Z" fill="url(#paint3_linear_2356_66069)"/>
<path d="M21.7271 31.9511C24.0385 31.978 25.874 33.7738 25.874 35.9342C25.874 36.0301 25.8701 36.1261 25.8625 36.2233L25.5913 39.8685C24.7445 39.1892 23.5396 39.0293 22.5099 39.5717L17.8731 42.0123L17.3525 42.2861L17.4868 36.2179L17.5035 35.8268C17.5572 33.6523 19.4388 31.9255 21.7271 31.9511Z" fill="url(#paint4_linear_2356_66069)"/>
<path d="M12.3605 66.8214L9.83213 62.4857C9.26545 61.5138 8.9668 60.4089 8.9668 59.2839V50.5377C8.9668 48.1781 10.274 46.0127 12.362 44.9136L22.509 39.5722C23.9498 38.8138 25.7315 39.4285 26.3981 40.914C27.2627 42.8407 26.6567 45.1097 24.9466 46.3488L19.6111 50.2143C18.8518 50.7643 18.7646 51.863 19.4276 52.5259L22.2869 55.3852C23.5432 56.6415 24.249 58.3455 24.249 60.1222C24.249 63.8221 21.2497 66.8214 17.5498 66.8214H12.3605Z" fill="url(#paint5_linear_2356_66069)"/>
<path d="M68.1759 49.0669C68.1478 49.0643 68.1197 49.063 68.0928 49.063C68.121 49.0643 68.149 49.0656 68.1759 49.0682V49.0669Z" fill="url(#paint6_linear_2356_66069)"/>
<path d="M51.2495 39.2711H52.9684C52.9684 39.2711 70.5205 37.6414 70.4167 40.9442C70.3343 43.5683 70.5008 46.2038 70.9017 48.8156C70.9878 49.3771 71.0325 49.9523 71.0325 50.5379V59.2842V59.5927L71.0214 59.6162C70.9687 60.6257 70.6779 61.61 70.167 62.486L69.0946 64.3249C68.141 65.9601 67.6386 67.8192 67.6386 69.7122V74.8179C67.6386 75.8389 66.811 76.6666 65.7899 76.6666H45.2425C44.2214 76.6666 43.3938 75.8389 43.3938 74.8179V69.7132C43.3938 67.8338 42.7999 66.0024 41.6969 64.4806C40.5939 62.9589 40 61.1276 40 59.2481V50.5207C40 44.3076 45.0366 39.2711 51.2495 39.2711Z" fill="url(#paint7_linear_2356_66069)"/>
<path d="M40 50.5202V59.2478C40 60.1885 40.1485 61.1158 40.4351 61.9979C40.7217 62.8817 41.1463 63.7204 41.6969 64.481C42.7996 66.0023 43.3937 67.8328 43.3937 69.7127V74.8169C43.3937 75.8386 44.222 76.6669 45.2422 76.6669H65.7909C66.8111 76.6669 67.6393 75.8386 67.6393 74.8169V69.7111C67.6393 67.8237 68.139 65.9707 69.0872 64.3384L67.6393 66.8215H62.4496C60.5996 66.8215 58.9253 66.0714 57.713 64.8591C56.5007 63.6468 55.7506 61.9725 55.7506 60.1225C55.7506 58.3461 56.4557 56.6417 57.713 55.3844L60.5727 52.5263C61.2343 51.8631 61.1473 50.7648 60.3882 50.2143L55.053 46.3493C53.8663 45.4896 53.2106 44.1318 53.2106 42.738C53.2106 42.3577 53.2595 41.9745 53.3597 41.5976C53.4211 41.3665 52.9121 39.2706 52.9121 39.2706H51.2496C45.0367 39.2708 40 44.3073 40 50.5202Z" fill="url(#paint8_linear_2356_66069)"/>
<path d="M66.3132 33.5869C64.6491 33.6023 63.2189 34.6691 62.5129 36.2181C62.2111 36.8794 62.041 37.6303 62.041 38.4233C62.041 38.4693 62.041 38.5142 62.0423 38.5602L62.1267 42.0124L62.6472 42.2862L67.6371 44.9136C68.874 45.5647 69.8359 46.5893 70.4152 47.8082L70.7018 38.6523C70.7888 35.874 68.7883 33.5652 66.3132 33.5869Z" fill="url(#paint9_linear_2356_66069)"/>
<path d="M58.2729 31.9512C55.9615 31.9781 54.126 33.7739 54.126 35.9344C54.126 36.0303 54.1299 36.1262 54.1375 36.2234L54.4087 39.8686C55.2555 39.1894 56.4604 39.0295 57.4901 39.5718L62.1269 42.0124L62.6475 42.2862L62.5131 36.2181L62.4965 35.8269C62.4428 33.6524 60.5612 31.9256 58.2729 31.9512Z" fill="url(#paint10_linear_2356_66069)"/>
<path d="M67.6396 66.8215L70.168 62.4857C70.7347 61.5139 71.0334 60.409 71.0334 59.284V50.5377C71.0334 48.1781 69.7262 46.0128 67.6382 44.9136L57.4911 39.5722C56.0504 38.8139 54.2686 39.4286 53.602 40.9141C52.7374 42.8408 53.3435 45.1098 55.0536 46.3488L60.3891 50.2143C61.1483 50.7643 61.2356 51.8631 60.5726 52.5259L57.7133 55.3852C56.457 56.6415 55.7511 58.3456 55.7511 60.1223C55.7511 63.8221 58.7505 66.8215 62.4503 66.8215H67.6396Z" fill="url(#paint11_linear_2356_66069)"/>
<path d="M40.0002 62.6363C38.7055 62.6363 37.4086 62.3297 36.25 61.7498C32.7482 59.9973 25.91 56.2395 19.4594 50.7612C11.0679 43.6346 6.09403 35.9852 4.67597 28.0254C3.57438 21.842 5.14702 15.5297 8.9907 10.707C12.5504 6.24054 17.5946 3.63045 23.1942 3.35753C23.5235 3.34143 23.8571 3.33337 24.1855 3.33337C29.4319 3.33337 34.3844 5.35522 38.1311 9.02648C38.8077 9.68965 39.4318 10.3934 40 11.1319C40.5686 10.3934 41.1925 9.6895 41.8693 9.0262C45.6157 5.35522 50.5685 3.33337 55.815 3.33337C56.1434 3.33337 56.4772 3.34157 56.8063 3.35753C62.406 3.63045 67.4503 6.24054 71.01 10.7073C74.8536 15.53 76.4261 21.8423 75.3244 28.0256C73.9065 35.9852 68.9326 43.6348 60.5411 50.7613C54.0907 56.2393 47.2527 59.9974 43.7505 61.75C42.5917 62.3299 41.2949 62.6363 40.0002 62.6363Z" fill="url(#paint12_linear_2356_66069)"/>
<path d="M71.01 10.7073C69.6756 9.03301 68.1327 7.61969 66.4302 6.49237C69.5384 11.1081 70.7435 16.8292 69.743 22.4442C68.3251 30.4039 63.3512 38.0534 54.9597 45.18C48.5093 50.658 41.6713 54.4161 38.1692 56.1686C37.0103 56.7486 35.7135 57.0551 34.4188 57.0551C33.1241 57.0551 31.8273 56.7486 30.6686 56.1686C27.1669 54.4161 20.3286 50.6583 13.878 45.18C13.6016 44.9453 13.3296 44.7099 13.0605 44.4741C14.908 46.6099 17.0408 48.7075 19.4594 50.7614C25.91 56.2397 32.7482 59.9975 36.25 61.75C37.4088 62.3299 38.7056 62.6365 40.0002 62.6365C41.2949 62.6365 42.5917 62.3301 43.7504 61.75C47.2526 59.9975 54.0905 56.2394 60.541 50.7614C68.9325 43.6348 73.9063 35.9853 75.3243 28.0256C76.4261 21.8423 74.8536 15.5301 71.01 10.7073Z" fill="url(#paint13_linear_2356_66069)"/>
<path d="M56.806 3.35753C56.4767 3.34157 56.1431 3.33337 55.8147 3.33337C50.5682 3.33337 45.6155 5.35522 41.869 9.02634C41.1923 9.6895 40.5684 10.3932 40 11.1317V62.6363C41.2947 62.6363 42.5915 62.3299 43.7502 61.7498C47.2524 59.9973 54.0903 56.2392 60.5408 50.7612C68.9323 43.6346 73.9062 35.9851 75.3241 28.0254C76.4258 21.8421 74.8533 15.5299 71.0096 10.7071C67.4499 6.24054 62.4056 3.63045 56.806 3.35753Z" fill="url(#paint14_linear_2356_66069)"/>
<path d="M67.6396 66.8213L70.168 62.4856C70.7347 61.5137 71.0334 60.4088 71.0334 59.2838V50.5376C71.0334 48.178 69.7262 46.0127 67.6382 44.9135L57.4911 39.5721C56.0504 38.8138 54.2686 39.4285 53.602 40.914C52.7374 42.8406 53.3435 45.1097 55.0536 46.3487L60.3891 50.2142C61.1483 50.7642 61.2356 51.8629 60.5726 52.5258L57.7133 55.3851C56.457 56.6414 55.7511 58.3455 55.7511 60.1221C55.7511 63.822 58.7505 66.8213 62.4503 66.8213H67.6396Z" fill="url(#paint15_linear_2356_66069)"/>
<path d="M12.3605 66.8213L9.83213 62.4856C9.26545 61.5137 8.9668 60.4088 8.9668 59.2838V50.5376C8.9668 48.1779 10.274 46.0126 12.362 44.9135L22.509 39.5721C23.9498 38.8137 25.7315 39.4284 26.3981 40.9139C27.2627 42.8406 26.6567 45.1096 24.9466 46.3486L19.6111 50.2142C18.8518 50.7642 18.7646 51.8629 19.4276 52.5257L22.2869 55.385C23.5432 56.6413 24.249 58.3454 24.249 60.1221C24.249 63.822 21.2497 66.8213 17.5498 66.8213H12.3605Z" fill="url(#paint16_linear_2356_66069)"/>
<path d="M12.3605 66.8213L9.83213 62.4856C9.26545 61.5137 8.9668 60.4088 8.9668 59.2838V50.5376C8.9668 48.1779 10.274 46.0126 12.362 44.9135L22.509 39.5721C23.9498 38.8137 25.7315 39.4284 26.3981 40.9139C27.2627 42.8406 26.6567 45.1096 24.9466 46.3486L19.6111 50.2142C18.8518 50.7642 18.7646 51.8629 19.4276 52.5257L22.2869 55.385C23.5432 56.6413 24.249 58.3454 24.249 60.1221C24.249 63.822 21.2497 66.8213 17.5498 66.8213H12.3605Z" fill="url(#paint17_linear_2356_66069)"/>
<path d="M67.6396 66.8213L70.168 62.4856C70.7347 61.5137 71.0334 60.4088 71.0334 59.2838V50.5376C71.0334 48.178 69.7262 46.0127 67.6382 44.9135L57.4911 39.5721C56.0504 38.8138 54.2686 39.4285 53.602 40.914C52.7374 42.8406 53.3435 45.1097 55.0536 46.3487L60.3891 50.2142C61.1483 50.7642 61.2356 51.8629 60.5726 52.5258L57.7133 55.3851C56.457 56.6414 55.7511 58.3455 55.7511 60.1221C55.7511 63.822 58.7505 66.8213 62.4503 66.8213H67.6396Z" fill="url(#paint18_linear_2356_66069)"/>
<defs>
<linearGradient id="paint0_linear_2356_66069" x1="11.8346" y1="49.0595" x2="11.9232" y2="49.0774" gradientUnits="userSpaceOnUse">
<stop stop-color="#FCB37E"/>
<stop offset="1" stop-color="#8C6239"/>
</linearGradient>
<linearGradient id="paint1_linear_2356_66069" x1="4.63539" y1="43.1741" x2="47.1579" y2="77.1921" gradientUnits="userSpaceOnUse">
<stop stop-color="#FFDECF"/>
<stop offset="1" stop-color="#FAA68E"/>
</linearGradient>
<linearGradient id="paint2_linear_2356_66069" x1="33.936" y1="64.6057" x2="23.1064" y2="58.1665" gradientUnits="userSpaceOnUse">
<stop stop-color="#FAA68E" stop-opacity="0"/>
<stop offset="1" stop-color="#FAA68E"/>
</linearGradient>
<linearGradient id="paint3_linear_2356_66069" x1="10.3956" y1="40.1978" x2="20.3724" y2="43.4512" gradientUnits="userSpaceOnUse">
<stop stop-color="#FFDECF"/>
<stop offset="1" stop-color="#FAA68E"/>
</linearGradient>
<linearGradient id="paint4_linear_2356_66069" x1="17.9605" y1="36.7602" x2="30.7547" y2="39.3405" gradientUnits="userSpaceOnUse">
<stop stop-color="#FFDECF"/>
<stop offset="1" stop-color="#FAA68E"/>
</linearGradient>
<linearGradient id="paint5_linear_2356_66069" x1="15.2134" y1="42.6786" x2="20.589" y2="59.7828" gradientUnits="userSpaceOnUse">
<stop stop-color="#FFDECF"/>
<stop offset="1" stop-color="#FAA68E" stop-opacity="0"/>
</linearGradient>
<linearGradient id="paint6_linear_2356_66069" x1="68.1645" y1="49.0596" x2="68.076" y2="49.0774" gradientUnits="userSpaceOnUse">
<stop stop-color="#FCB37E"/>
<stop offset="1" stop-color="#8C6239"/>
</linearGradient>
<linearGradient id="paint7_linear_2356_66069" x1="75.3639" y1="43.1741" x2="32.8414" y2="77.1922" gradientUnits="userSpaceOnUse">
<stop stop-color="#FFDECF"/>
<stop offset="1" stop-color="#FAA68E"/>
</linearGradient>
<linearGradient id="paint8_linear_2356_66069" x1="57.3078" y1="66.582" x2="44.5219" y2="53.7961" gradientUnits="userSpaceOnUse">
<stop stop-color="#FAA68E" stop-opacity="0"/>
<stop offset="1" stop-color="#B74B52"/>
</linearGradient>
<linearGradient id="paint9_linear_2356_66069" x1="69.6038" y1="40.198" x2="59.6271" y2="43.4514" gradientUnits="userSpaceOnUse">
<stop stop-color="#FFDECF"/>
<stop offset="1" stop-color="#FAA68E"/>
</linearGradient>
<linearGradient id="paint10_linear_2356_66069" x1="62.0395" y1="36.7603" x2="49.2453" y2="39.3406" gradientUnits="userSpaceOnUse">
<stop stop-color="#FFDECF"/>
<stop offset="1" stop-color="#FAA68E"/>
</linearGradient>
<linearGradient id="paint11_linear_2356_66069" x1="64.7868" y1="42.6787" x2="59.4112" y2="59.7829" gradientUnits="userSpaceOnUse">
<stop stop-color="#FFDECF"/>
<stop offset="1" stop-color="#FAA68E" stop-opacity="0"/>
</linearGradient>
<linearGradient id="paint12_linear_2356_66069" x1="34.1158" y1="17.7314" x2="59.0518" y2="48.8659" gradientUnits="userSpaceOnUse">
<stop stop-color="#FF7044"/>
<stop offset="1" stop-color="#F82814"/>
</linearGradient>
<linearGradient id="paint13_linear_2356_66069" x1="48.4368" y1="40.5849" x2="58.7623" y2="62.653" gradientUnits="userSpaceOnUse">
<stop stop-color="#F82814" stop-opacity="0"/>
<stop offset="1" stop-color="#C0272D"/>
</linearGradient>
<linearGradient id="paint14_linear_2356_66069" x1="45.8982" y1="26.7985" x2="13.0769" y2="-6.66641" gradientUnits="userSpaceOnUse">
<stop stop-color="#F82814" stop-opacity="0"/>
<stop offset="1" stop-color="#C0272D"/>
</linearGradient>
<linearGradient id="paint15_linear_2356_66069" x1="39.1181" y1="19.6685" x2="104.019" y2="115.158" gradientUnits="userSpaceOnUse">
<stop stop-color="#FFDECF"/>
<stop offset="1" stop-color="#FAA68E"/>
</linearGradient>
<linearGradient id="paint16_linear_2356_66069" x1="15.2134" y1="42.6785" x2="20.589" y2="59.7827" gradientUnits="userSpaceOnUse">
<stop stop-color="#FFDECF"/>
<stop offset="1" stop-color="#FAA68E"/>
</linearGradient>
<linearGradient id="paint17_linear_2356_66069" x1="15.2134" y1="42.6785" x2="20.589" y2="59.7827" gradientUnits="userSpaceOnUse">
<stop stop-color="#FFDECF"/>
<stop offset="1" stop-color="#FAA68E" stop-opacity="0"/>
</linearGradient>
<linearGradient id="paint18_linear_2356_66069" x1="64.7868" y1="42.6786" x2="59.4112" y2="59.7828" gradientUnits="userSpaceOnUse">
<stop stop-color="#FFDECF"/>
<stop offset="1" stop-color="#FAA68E" stop-opacity="0"/>
</linearGradient>
</defs>
</svg>
