<svg width="80" height="80" viewBox="0 0 80 80" fill="none" xmlns="http://www.w3.org/2000/svg">
<g opacity="0.8">
<path d="M7.41805 76.6667H5.48144C4.29493 76.6667 3.33301 75.7048 3.33301 74.5183V72.5817C3.33301 67.3986 4.6563 62.2593 7.15966 57.7189C9.65414 53.195 13.2788 49.3387 17.642 46.5671C18.4914 46.0274 19.6017 46.1496 20.3131 46.8614L33.1381 59.6866C33.8497 60.3982 33.972 61.5083 33.4325 62.3577C30.6607 66.7209 26.8044 70.3456 22.2805 72.84C17.7403 75.3435 12.6009 76.6667 7.41805 76.6667Z" fill="url(#paint0_linear_2356_66101)"/>
<path d="M49.5142 73.1455C49.3998 73.1455 49.2846 73.1365 49.17 73.1179C48.4883 73.0073 47.9014 72.5756 47.5925 71.9579L41.2768 59.3268C40.8112 58.3957 41.0803 57.2647 41.9153 56.6428L60.5818 42.7437C61.2093 42.2764 62.0412 42.1873 62.7536 42.511C63.466 42.8347 63.946 43.5199 64.0068 44.2999C64.7074 53.2864 61.4552 62.0943 55.0842 68.4652L51.0331 72.5163C50.6271 72.9223 50.0791 73.1455 49.5142 73.1455Z" fill="url(#paint1_linear_2356_66101)"/>
<path d="M21.633 38.95C21.3083 38.95 20.98 38.8764 20.6732 38.723L8.04211 32.4073C7.42437 32.0985 6.99282 31.5115 6.88225 30.8298C6.77167 30.1481 6.9954 29.4548 7.48381 28.9665L11.535 24.9154C17.9059 18.5444 26.7145 15.2931 35.7002 15.9928C36.4803 16.0537 37.1656 16.5336 37.4893 17.2461C37.813 17.9585 37.7238 18.7904 37.2566 19.4178L23.3573 38.0843C22.9404 38.6445 22.2943 38.95 21.633 38.95Z" fill="url(#paint2_linear_2356_66101)"/>
<path d="M74.0407 26.8918C68.5583 26.5933 63.4137 24.3038 59.5546 20.4449C55.6959 16.586 53.4062 11.4414 53.1078 5.95884L53.0688 5.24341C45.9711 7.36979 39.3979 11.2307 34.006 16.6225L33.8996 16.7291C25.5611 25.0676 19.2335 34.8941 15.0929 45.9359C14.7971 46.7248 14.9896 47.6137 15.5853 48.2094L31.7898 64.4139C32.2 64.8243 32.7495 65.0433 33.3093 65.0433C33.5624 65.0433 33.8178 64.9985 34.0633 64.9065C45.105 60.7659 54.9315 54.4385 63.27 46.0998L63.377 45.9928C68.7686 40.6012 72.6292 34.0283 74.7555 26.9307L74.0407 26.8918Z" fill="url(#paint3_linear_2356_66101)"/>
<path d="M75.9349 5.79464C75.7749 4.91436 75.0858 4.22528 74.2056 4.06529C66.5364 2.67067 58.7626 3.29501 51.585 5.71658L51.6762 7.39107C51.9747 12.8735 54.2642 18.0181 58.1231 21.8771C61.982 25.7359 67.1266 28.0255 72.6091 28.324L74.2836 28.4152C76.7051 21.2377 77.3292 13.464 75.9349 5.79464Z" fill="url(#paint4_linear_2356_66101)"/>
<path d="M48.5014 40.8084C46.0147 40.8084 43.6766 39.84 41.9183 38.0816C40.1599 36.3233 39.1914 33.9852 39.1914 31.4985C39.1914 29.0117 40.1598 26.6737 41.9183 24.9154C43.6766 23.157 46.0147 22.1886 48.5014 22.1886C50.9882 22.1886 53.3263 23.157 55.0845 24.9154C56.843 26.6737 57.8113 29.0117 57.8113 31.4985C57.8113 33.9852 56.843 36.3233 55.0845 38.0816C53.3261 39.84 50.9882 40.8084 48.5014 40.8084Z" fill="url(#paint5_linear_2356_66101)"/>
<path d="M19.1308 63.0178C18.5809 63.0178 18.0311 62.808 17.6117 62.3885C16.7727 61.5496 16.7727 60.1892 17.6117 59.3501L35.8416 41.1201C36.6805 40.2812 38.0409 40.2812 38.8799 41.1201C39.719 41.959 39.719 43.3194 38.8799 44.1584L20.6499 62.3885C20.2304 62.808 19.6805 63.0178 19.1308 63.0178Z" fill="url(#paint6_linear_2356_66101)"/>
<path d="M48.5014 36.5115C47.1624 36.5115 45.9036 35.9902 44.9567 35.0433C44.0098 34.0965 43.4883 32.8375 43.4883 31.4985C43.4883 30.1594 44.0098 28.9006 44.9567 27.9537C45.9034 27.0068 47.1624 26.4855 48.5014 26.4855C49.8405 26.4855 51.0993 27.0068 52.0462 27.9537C52.9931 28.9005 53.5145 30.1594 53.5145 31.4985C53.5145 32.8375 52.9931 34.0964 52.0462 35.0433C51.0993 35.9902 49.8403 36.5115 48.5014 36.5115Z" fill="url(#paint7_linear_2356_66101)"/>
</g>
<defs>
<linearGradient id="paint0_linear_2356_66101" x1="23.958" y1="56.0417" x2="11.4997" y2="68.5" gradientUnits="userSpaceOnUse">
<stop stop-color="#FF5C00"/>
<stop offset="1" stop-color="#FFE137"/>
</linearGradient>
<linearGradient id="paint1_linear_2356_66101" x1="62.5688" y1="44.3669" x2="41.7153" y2="55.5694" gradientUnits="userSpaceOnUse">
<stop stop-color="#E766D2"/>
<stop offset="1" stop-color="#9F2CD6"/>
</linearGradient>
<linearGradient id="paint2_linear_2356_66101" x1="35.6333" y1="17.431" x2="16.9467" y2="35.3851" gradientUnits="userSpaceOnUse">
<stop stop-color="#E766D2"/>
<stop offset="1" stop-color="#9F2CD6"/>
</linearGradient>
<linearGradient id="paint3_linear_2356_66101" x1="56.805" y1="17.0834" x2="22.43" y2="57.5695" gradientUnits="userSpaceOnUse">
<stop stop-color="white"/>
<stop offset="1" stop-color="#FBFFEB"/>
</linearGradient>
<linearGradient id="paint4_linear_2356_66101" x1="75" y1="5.00004" x2="55.7147" y2="18.855" gradientUnits="userSpaceOnUse">
<stop stop-color="#E766D2"/>
<stop offset="1" stop-color="#9F2CD6"/>
</linearGradient>
<linearGradient id="paint5_linear_2356_66101" x1="56.574" y1="23.4259" x2="42.2573" y2="33.7115" gradientUnits="userSpaceOnUse">
<stop stop-color="#FF891C"/>
<stop offset="1" stop-color="#9F2CD6"/>
</linearGradient>
<linearGradient id="paint6_linear_2356_66101" x1="38.0123" y1="41.9878" x2="20.6915" y2="54.4315" gradientUnits="userSpaceOnUse">
<stop stop-color="#E766D2"/>
<stop offset="1" stop-color="#9F2CD6"/>
</linearGradient>
<linearGradient id="paint7_linear_2356_66101" x1="48.5014" y1="26.4855" x2="48.5014" y2="36.5115" gradientUnits="userSpaceOnUse">
<stop stop-color="#84D6FF"/>
<stop offset="1" stop-color="#C4EBFF"/>
</linearGradient>
</defs>
</svg>
