<svg width="80" height="80" viewBox="0 0 80 80" fill="none" xmlns="http://www.w3.org/2000/svg">
<path d="M24.6737 63.4807H5.41403C4.11968 63.4807 3.07031 64.5301 3.07031 65.8244V77.6557C3.07031 78.9501 4.11968 79.9994 5.41403 79.9994H24.6735L27.5552 71.8355L24.6737 63.4807Z" fill="url(#paint0_linear_2356_66004)"/>
<path d="M53.3335 54.8052L48.8086 50.3561H27.0176C25.7238 50.3561 24.6738 51.4045 24.6738 52.6998V79.9995H48.8086L53.3335 74.1675V54.8052Z" fill="url(#paint1_linear_2356_66004)"/>
<path d="M74.6557 12.658L79.3791 7.53155C80.0103 6.84718 80.1759 5.855 79.8025 5.00345C79.4291 4.15034 78.5869 3.60034 77.6557 3.60034H57.9248V21.3017H77.6557C78.6041 21.3017 79.4588 20.7298 79.8213 19.8533C80.1838 18.9767 79.9822 17.9674 79.3103 17.2986L74.6557 12.658Z" fill="url(#paint2_linear_2356_66004)"/>
<path d="M57.0791 34.3751C55.7847 34.3751 54.7354 33.3257 54.7354 32.0314V2.34421C54.7354 1.04985 55.7847 0.000488281 57.0791 0.000488281C58.3734 0.000488281 59.4228 1.04985 59.4228 2.34421V32.0314C59.4228 33.3257 58.3734 34.3751 57.0791 34.3751Z" fill="url(#paint3_linear_2356_66004)"/>
<path d="M65.9348 32.0312H48.6211C47.3267 32.0312 46.2773 33.0806 46.2773 34.375V79.9994H65.9348C67.2291 79.9994 68.2785 78.9501 68.2785 77.6557V34.375C68.2785 33.0806 67.2291 32.0312 65.9348 32.0312Z" fill="url(#paint4_linear_2356_66004)"/>
<path d="M43.9732 18.0404C39.7242 9.47224 40.1539 10.336 40.0923 10.2196C39.6039 9.29661 38.5626 8.80787 37.5398 9.02255L29.2035 10.7769C27.9368 11.0435 27.1262 12.2864 27.3926 13.5531C27.6249 14.657 28.5988 15.4147 29.6838 15.4147C29.8437 15.4147 30.0062 15.3983 30.1688 15.364L33.9219 14.5742C30.8483 20.607 26.8484 26.1047 21.9906 30.9626C16.037 36.9163 9.11985 41.5839 1.43135 44.8357C0.239174 45.3401 -0.318475 46.7151 0.185738 47.9073C0.563858 48.8016 1.43197 49.3386 2.3454 49.3386C2.64977 49.3386 2.9593 49.279 3.25726 49.153C11.5045 45.6648 18.9225 40.6598 25.305 34.2771C30.5069 29.0751 34.7933 23.1869 38.0883 16.7245L39.7736 20.123C40.3487 21.2827 41.7546 21.7565 42.9146 21.1815C44.0743 20.6063 44.5482 19.2001 43.9732 18.0404Z" fill="url(#paint5_linear_2356_66004)"/>
<defs>
<linearGradient id="paint0_linear_2356_66004" x1="15.3127" y1="63.4807" x2="15.3127" y2="79.9994" gradientUnits="userSpaceOnUse">
<stop stop-color="#AEB2F9"/>
<stop offset="1" stop-color="#9CA0EA"/>
</linearGradient>
<linearGradient id="paint1_linear_2356_66004" x1="32.337" y1="50.3561" x2="32.337" y2="79.9995" gradientUnits="userSpaceOnUse">
<stop stop-color="#9BAFF9"/>
<stop offset="1" stop-color="#778EE4"/>
</linearGradient>
<linearGradient id="paint2_linear_2356_66004" x1="74.9998" y1="13.3332" x2="59.9998" y2="21.6665" gradientUnits="userSpaceOnUse">
<stop stop-color="#F07373"/>
<stop offset="1" stop-color="#8A57CA"/>
</linearGradient>
<linearGradient id="paint3_linear_2356_66004" x1="57.0791" y1="0.000488281" x2="57.0791" y2="34.3751" gradientUnits="userSpaceOnUse">
<stop stop-color="#666AFF"/>
<stop offset="1" stop-color="#5F69E2"/>
</linearGradient>
<linearGradient id="paint4_linear_2356_66004" x1="57.2779" y1="32.0312" x2="57.2779" y2="79.9994" gradientUnits="userSpaceOnUse">
<stop stop-color="#838CFC"/>
<stop offset="1" stop-color="#5F69E2"/>
</linearGradient>
<linearGradient id="paint5_linear_2356_66004" x1="40.8333" y1="13.3334" x2="0.57999" y2="45.7265" gradientUnits="userSpaceOnUse">
<stop stop-color="#F07373"/>
<stop offset="1" stop-color="#8A57CA"/>
</linearGradient>
</defs>
</svg>
