<svg width="537" height="411" viewBox="0 0 537 411" fill="none" xmlns="http://www.w3.org/2000/svg">
<path d="M223.695 8.46727C230.089 -2.82244 248.911 -2.82241 255.305 8.4673L318.991 120.967C323.052 128.14 330.297 133.638 339.114 136.248L525.194 191.33C540.935 195.99 540.935 215.009 525.194 219.669L339.114 274.751C330.297 277.361 323.052 282.859 318.991 290.033L255.305 402.533C248.911 413.822 230.089 413.822 223.695 402.533L159.997 290.033C155.936 282.859 148.703 277.361 139.886 274.751L-46.1944 219.669C-61.9352 215.009 -61.9352 195.99 -46.1944 191.33L139.886 136.248C148.703 133.638 155.936 128.14 159.997 120.967L223.695 8.46727Z" fill="url(#paint0_linear_2356_65998)"/>
<defs>
<linearGradient id="paint0_linear_2356_65998" x1="-57.9989" y1="205.497" x2="390.094" y2="-51.0705" gradientUnits="userSpaceOnUse">
<stop stop-color="#5E61DA"/>
<stop offset="1" stop-color="#8C52D6"/>
</linearGradient>
</defs>
</svg>
