<svg width="80" height="80" viewBox="0 0 80 80" fill="none" xmlns="http://www.w3.org/2000/svg">
<path d="M0.13146 39.2127C-0.293853 38.2105 0.357866 37.0816 1.43849 36.9487C6.72927 36.2989 20.8951 35.2356 30.539 40.8036C41.9227 47.3761 39.9999 60.7214 39.9999 60.7214C39.9999 60.7214 29.4038 69.0594 18.0201 62.4869C8.37599 56.9191 2.21396 44.1195 0.13146 39.2127Z" fill="url(#paint0_linear_2356_66022)"/>
<path d="M14.9071 19.8673C15.0413 18.7913 16.1662 18.1418 17.1651 18.5635C22.2579 20.7135 35.9387 27.2432 41.8643 37.5068C48.8062 49.5301 39.9998 60.7215 39.9998 60.7215C39.9998 60.7215 25.9046 62.7523 18.9629 50.729C13.0371 40.4654 14.2227 25.3527 14.9071 19.8673Z" fill="url(#paint1_linear_2356_66022)"/>
<path d="M79.8681 39.2128C80.2935 38.2106 79.6417 37.0817 78.5611 36.9489C73.2703 36.299 59.1046 35.2357 49.4606 40.8037C38.0767 47.3762 39.9996 60.7215 39.9996 60.7215C39.9996 60.7215 50.5956 69.0595 61.9794 62.487C71.6235 56.9192 77.7855 44.1196 79.8681 39.2128Z" fill="url(#paint2_linear_2356_66022)"/>
<path d="M65.0923 19.8673C64.958 18.7913 63.8332 18.1418 62.8343 18.5635C57.7415 20.7135 44.0607 27.2432 38.1351 37.5068C31.1934 49.5301 39.9996 60.7215 39.9996 60.7215C39.9996 60.7215 54.0948 62.7523 61.0365 50.729C66.9623 40.4654 65.7766 25.3527 65.0923 19.8673Z" fill="url(#paint3_linear_2356_66022)"/>
<path d="M38.6958 12.7943C39.35 11.9296 40.6489 11.9296 41.3031 12.7943C44.6387 17.2027 53.2217 29.6979 53.2217 41.5493C53.2217 55.4325 39.9995 60.7215 39.9995 60.7215C39.9995 60.7215 26.7773 55.4325 26.7773 41.5493C26.7773 29.6979 35.3603 17.2027 38.6958 12.7943Z" fill="url(#paint4_linear_2356_66022)"/>
<path d="M45.9356 49.6191C45.2813 49.4444 44.6085 49.834 44.4339 50.4888C43.6922 53.2724 42.3669 55.6107 41.2274 57.2558V47.4993C41.2274 46.8216 40.678 46.2721 40.0002 46.2721C39.3225 46.2721 38.773 46.8215 38.773 47.4993V57.2558C37.6333 55.6107 36.308 53.2723 35.5664 50.4888C35.3919 49.834 34.7199 49.4449 34.0647 49.6191C33.4099 49.7937 33.0205 50.466 33.195 51.1208C34.1127 54.5649 35.7905 57.3602 37.1313 59.1958C38.8036 60.2424 40.0002 60.7216 40.0002 60.7216C40.0002 60.7216 41.1967 60.2424 42.8691 59.1958C44.2099 57.3602 45.8877 54.5649 46.8053 51.1208C46.9799 50.466 46.5905 49.7937 45.9356 49.6191Z" fill="url(#paint5_linear_2356_66022)"/>
<path d="M78.4541 59.4723C79.2292 60.1244 79.2292 61.3187 78.4541 61.9708C75.4923 64.4624 68.1305 69.8118 59.5175 69.8118C50.9053 69.8118 43.5439 64.4632 40.5817 61.9715C39.8061 61.319 39.8061 60.1241 40.5817 59.4718C43.5439 56.9801 50.9053 51.6315 59.5175 51.6315C68.1305 51.6313 75.4923 56.9808 78.4541 59.4723Z" fill="url(#paint6_linear_2356_66022)"/>
<path d="M1.54621 59.4723C0.771055 60.1244 0.771055 61.3187 1.54621 61.9708C4.50793 64.4624 11.8698 69.8118 20.4828 69.8118C29.095 69.8118 36.4564 64.4632 39.4185 61.9715C40.1942 61.319 40.1942 60.1241 39.4185 59.4718C36.4564 56.9801 29.095 51.6315 20.4828 51.6315C11.8698 51.6313 4.50793 56.9808 1.54621 59.4723Z" fill="url(#paint7_linear_2356_66022)"/>
<defs>
<linearGradient id="paint0_linear_2356_66022" x1="20.0613" y1="36.4144" x2="20.0613" y2="65.0114" gradientUnits="userSpaceOnUse">
<stop stop-color="#DD4FB1"/>
<stop offset="1" stop-color="#FFD0F1"/>
</linearGradient>
<linearGradient id="paint1_linear_2356_66022" x1="29.4289" y1="18.4336" x2="29.4289" y2="60.851" gradientUnits="userSpaceOnUse">
<stop stop-color="#E490D0"/>
<stop offset="0.59375" stop-color="#FDA5E8"/>
<stop offset="1" stop-color="#FDA5E8"/>
</linearGradient>
<linearGradient id="paint2_linear_2356_66022" x1="59.9383" y1="36.4146" x2="59.9383" y2="65.0115" gradientUnits="userSpaceOnUse">
<stop stop-color="#DD4FB1"/>
<stop offset="1" stop-color="#FFD0F1"/>
</linearGradient>
<linearGradient id="paint3_linear_2356_66022" x1="50.5705" y1="18.4336" x2="50.5705" y2="60.851" gradientUnits="userSpaceOnUse">
<stop stop-color="#E490D0"/>
<stop offset="0.59375" stop-color="#FDA5E8"/>
<stop offset="1" stop-color="#FDA5E8"/>
</linearGradient>
<linearGradient id="paint4_linear_2356_66022" x1="39.9995" y1="12.1458" x2="39.9995" y2="60.7215" gradientUnits="userSpaceOnUse">
<stop stop-color="#FBA9D9"/>
<stop offset="1" stop-color="#FFD6EE"/>
</linearGradient>
<linearGradient id="paint5_linear_2356_66022" x1="40.0002" y1="46.2721" x2="40.0002" y2="60.7216" gradientUnits="userSpaceOnUse">
<stop stop-color="#FFE9F6"/>
<stop offset="1" stop-color="white"/>
</linearGradient>
<linearGradient id="paint6_linear_2356_66022" x1="79.0354" y1="60.0001" x2="39.0354" y2="60.0001" gradientUnits="userSpaceOnUse">
<stop stop-color="#95D6A4"/>
<stop offset="1" stop-color="#7BC88D"/>
</linearGradient>
<linearGradient id="paint7_linear_2356_66022" x1="40.0003" y1="60.0001" x2="0.000283779" y2="60.0001" gradientUnits="userSpaceOnUse">
<stop stop-color="#7BC88D"/>
<stop offset="1" stop-color="#95D6A4"/>
</linearGradient>
</defs>
</svg>
