<svg width="808" height="506" viewBox="0 0 808 506" fill="none" xmlns="http://www.w3.org/2000/svg">
<path d="M451.865 502.175C459.97 505.321 469.731 506.644 481.371 505.702C485.988 505.316 490.578 504.648 495.115 503.704C509.787 500.701 523.923 498.459 537.526 496.803C588.159 490.692 631.378 492.972 667.078 496.066C676.176 496.853 684.787 497.692 692.915 498.459C706.95 499.784 719.525 500.897 730.624 501.137C731.283 501.153 731.938 501.164 732.586 501.17C749.545 501.383 762.953 499.414 772.782 492.834C772.964 492.712 773.142 492.591 773.332 492.464C773.637 492.26 773.945 492.05 774.245 491.832C778.313 488.961 782.054 485.65 785.401 481.958C788.604 478.429 791.449 474.589 793.895 470.495C796.744 465.73 799.12 460.696 800.989 455.465C810.9 428.086 810.318 390.78 799.147 346.204C785.926 293.461 749.149 251.86 770.902 187.211C796.838 110.036 742.27 68.3254 646.479 80.802C550.689 93.2785 490.247 58.3801 445.768 100.312C394.935 148.239 455.331 258.035 436.453 313.878C420.577 360.839 393.121 479.377 451.865 502.175Z" fill="url(#paint0_linear_2357_67520)"/>
<path d="M23.4337 455.103C25.5295 459.187 28.0046 463.065 30.8263 466.686C31.6213 467.708 32.4439 468.702 33.2941 469.668C33.8582 470.318 34.4411 470.955 35.0347 471.578C35.3911 471.959 35.7592 472.338 36.1389 472.714C37.408 474.003 38.7359 475.236 40.1226 476.413C40.39 476.635 40.6306 476.849 40.8873 477.06L41.4889 477.558C42.8257 478.646 44.2293 479.697 45.6731 480.679C45.9405 480.858 46.1865 481.032 46.4485 481.214C47.9478 482.196 49.5139 483.072 51.1354 483.835C51.4429 483.985 51.7557 484.134 52.0738 484.276C59.5975 487.729 70.6396 490.914 84.1094 493.717C85.3161 493.968 86.5415 494.216 87.7857 494.46C90.6224 495.022 93.5608 495.562 96.582 496.089C115.113 499.298 136.954 501.879 159.929 503.578C200.084 506.557 243.766 506.889 279.539 503.388C288.274 502.535 296.538 501.451 304.169 500.122C323 496.843 337.943 492.069 346.485 485.536C346.841 485.265 347.184 484.992 347.514 484.717C391.608 447.965 327.079 386.423 350.081 334.121C377.264 272.301 389.803 146.122 334.617 106.685C274.433 63.6792 262.458 94.0825 169.284 81.9779C76.1099 69.8732 23.022 110.303 48.2852 185.084C69.4471 247.725 33.6738 288.032 20.8136 339.133C8.49341 388.089 9.40781 427.995 23.4337 455.103Z" fill="url(#paint1_linear_2357_67520)"/>
<path d="M275.599 355.557C275.599 355.557 308.926 262.932 338.43 272.186C367.933 281.439 299.769 329.705 291.082 356.966L275.599 355.557Z" fill="url(#paint2_linear_2357_67520)"/>
<g clip-path="url(#clip0_2357_67520)" filter="url(#filter0_d_2357_67520)">
<path fill-rule="evenodd" clip-rule="evenodd" d="M351.679 329.638C370.014 359.686 409.139 369.009 439.068 350.46C468.996 331.908 478.397 292.513 460.062 262.464C441.727 232.415 391.903 205.557 361.973 224.107C332.044 242.657 333.344 299.589 351.679 329.638Z" fill="url(#paint3_linear_2357_67520)"/>
<path d="M414.667 274.053L430.158 288.999M430.158 288.999L414.667 303.947M430.158 288.999H376.908" stroke="white" stroke-width="6" stroke-linecap="round" stroke-linejoin="round"/>
</g>
<path d="M549.519 427.42C549.519 427.42 559.588 315.818 529.391 314.012C499.195 312.206 539.11 390.404 535.163 422.788L549.519 427.42Z" fill="url(#paint4_linear_2357_67520)"/>
<path d="M540.318 407.356C540.318 407.356 528.711 310.395 498.432 312.797C468.153 315.2 522.842 376.99 525.187 405.264L540.318 407.356Z" fill="url(#paint5_linear_2357_67520)"/>
<path d="M531.844 406.268C530.577 386.713 522.537 366.025 516.015 352.116C508.942 337.036 502.087 326.456 502.019 326.349L502.667 325.923C502.736 326.03 509.621 336.643 516.716 351.786C523.268 365.761 531.344 386.548 532.619 406.213L531.844 406.268Z" fill="#1F1F1F" fill-opacity="0.06"/>
<path d="M448.99 374.527C460.562 387.29 443.696 406.375 461.967 413.703C477.455 419.905 479.399 419.476 481.281 426.579C481.906 428.992 482.19 431.481 482.125 433.973C482.062 436.972 482.595 441.84 486.097 445.414C507.495 467.234 566.388 455.012 554.961 416.785C554.137 414.036 551.847 411.562 549.211 408.953C534.899 394.896 524.674 398.697 525.386 370.613C526.098 342.528 489.709 357.419 479.596 348.71C469.484 340.002 462.264 329.947 445.788 335.368C429.313 340.788 437.408 361.773 448.99 374.527Z" fill="url(#paint6_linear_2357_67520)"/>
<path d="M528.621 437.524L529.674 437.129C529.498 436.661 511.219 389.712 441.555 337.229L440.884 338.133C510.285 390.424 528.445 437.063 528.621 437.524Z" fill="#1F1F1F" fill-opacity="0.06"/>
<path d="M503.861 378.499C519.138 376.778 525.496 371.27 525.757 371.036L525.012 370.184C524.949 370.239 518.616 375.698 503.726 377.372L503.861 378.499Z" fill="#C4C695"/>
<path d="M495.241 387.273C501.132 384.525 505.59 377.653 508.133 367.443C509.304 362.633 510.002 357.719 510.219 352.773L509.095 352.737C509.095 353.012 508.306 379.918 494.763 386.245L495.241 387.273Z" fill="#C4C695"/>
<path d="M477.726 372.295C479.497 372.16 480.525 371.987 480.571 371.979L480.368 370.863C480.151 370.901 458.5 374.557 440.196 360.574L439.52 361.476C454.27 372.743 471.138 372.798 477.726 372.295Z" fill="#1F1F1F" fill-opacity="0.06"/>
<path d="M453.539 386.999C461.166 385.292 465.743 381.399 468.238 378.433C470.957 375.206 471.85 372.405 471.886 372.287L470.811 371.941C470.778 372.048 467.254 382.765 453.286 385.894L453.539 386.999Z" fill="#1F1F1F" fill-opacity="0.06"/>
<path d="M511.934 138.41C511.934 138.41 506.327 126.356 492.144 127.868C477.961 129.38 479.646 141.461 472.904 140.328C466.161 139.196 456.687 140.328 454.664 147.879C452.641 155.43 443.493 151.28 443.16 157.695C442.828 164.111 453.633 168.647 466.131 162.981C478.629 157.316 484.706 167.379 502.273 165.56C519.839 163.74 522.011 161.472 532.409 162.605C542.807 163.737 542.557 155.779 537.829 150.493C533.102 145.208 513.957 145.711 511.934 138.41Z" fill="white"/>
<path d="M583.088 112.225C583.088 112.225 578.69 102.747 567.525 103.934C556.36 105.122 557.701 114.621 552.388 113.731C547.075 112.84 539.64 113.731 538.048 119.668C536.457 125.606 529.283 122.34 529.019 127.387C528.755 132.434 537.251 135.996 547.078 131.543C556.904 127.09 561.684 135.004 575.493 133.572C589.302 132.14 591.015 130.356 599.186 131.246C607.358 132.137 607.157 125.881 603.45 121.724C599.742 117.568 584.682 117.964 583.088 112.225Z" fill="white"/>
<g opacity="0.64" filter="url(#filter1_f_2357_67520)">
<path d="M599 308C531.621 308 477 253.379 477 186C477 118.621 531.621 64 599 64C666.379 64 721 118.621 721 186C721 253.379 666.379 308 599 308Z" fill="url(#paint7_linear_2357_67520)"/>
</g>
<path d="M599 263C556.474 263 522 228.526 522 186C522 143.474 556.474 109 599 109C641.526 109 676 143.474 676 186C676 228.526 641.526 263 599 263Z" fill="url(#paint8_radial_2357_67520)"/>
<path d="M451.865 500.277C459.971 503.411 469.731 504.727 481.369 503.79C485.986 503.405 490.575 502.741 495.112 501.8C509.784 498.809 523.92 496.577 537.523 494.928C534.25 467.423 530.927 438.511 528.266 415.303C528.236 415.05 528.208 414.8 528.178 414.547C525.954 395.058 524.228 379.689 523.448 372.732C523.151 370.104 522.991 368.678 522.991 368.678L518.187 370.272L482.729 382.062C481.905 383.741 480.382 387.436 478.422 392.9C477.621 395.123 476.754 397.633 475.819 400.429C472.551 410.237 468.552 423.451 464.498 439.352C463.363 443.815 462.228 448.48 461.092 453.349C457.862 467.25 454.718 482.762 452.005 499.474C451.947 499.747 451.903 500.013 451.865 500.277Z" fill="url(#paint9_linear_2357_67520)"/>
<path d="M551.096 248.813C551.096 248.813 546.516 264.011 530.341 273.764C514.165 283.517 517.265 302.846 531.674 303.52C546.082 304.193 534.554 341.635 565.482 337.663C584.635 335.205 551.096 248.813 551.096 248.813Z" fill="url(#paint10_linear_2357_67520)"/>
<path d="M604.926 213.455C604.926 213.455 629.436 207.174 649.223 227.749C669.011 248.324 641.945 268.58 679.299 277.269C706.249 283.544 737.966 296.67 723.695 321.951C709.424 347.231 744.31 333.435 767.027 358.015C789.745 382.595 773.506 435.655 730.745 425.911C687.984 416.166 724.247 450.15 670.649 456.439C617.05 462.728 604.371 329.444 604.371 329.444L604.926 213.455Z" fill="url(#paint11_linear_2357_67520)"/>
<path fill-rule="evenodd" clip-rule="evenodd" d="M675.114 402.635L715.083 376.663C715.083 376.663 700.009 328.746 608.241 329.48C604.362 329.508 600.969 329.373 597.671 329.242C592.575 329.039 587.707 328.846 581.628 329.276C581.599 329.278 581.569 329.28 581.539 329.283C580.827 329.311 580.112 329.358 579.395 329.428C578.82 329.465 578.249 329.501 577.68 329.536C573.167 329.82 568.835 330.092 564.529 330.871C505.499 341.442 474.475 383.994 474.475 383.994C474.475 383.994 478.33 402.189 500.881 410.791C500.534 411.983 484.997 465.387 481.372 503.79C485.989 503.405 490.578 502.741 495.115 501.8C509.787 498.809 523.923 496.577 537.527 494.928C566.25 491.475 592.593 490.714 616.525 491.264C634.779 491.682 651.631 492.861 667.078 494.194C671.943 494.615 676.668 495.042 681.253 495.475C685.244 495.852 689.128 496.219 692.905 496.574C692.701 495.165 692.495 493.759 692.286 492.355C692.184 491.651 692.083 490.95 691.97 490.247C691.261 485.407 690.528 480.62 689.771 475.887C689.745 475.723 689.72 475.56 689.694 475.396C689.613 474.881 689.532 474.366 689.447 473.853C688.32 466.819 687.171 459.925 685.975 453.237C684.579 445.43 683.139 437.89 681.654 430.696C680.17 423.503 678.631 416.677 677.061 410.259C676.644 408.557 676.217 406.881 675.794 405.24C675.78 405.187 675.767 405.135 675.755 405.083C675.745 405.044 675.736 405.005 675.725 404.965C675.55 404.276 675.37 403.598 675.191 402.925C675.166 402.829 675.14 402.734 675.115 402.639C675.115 402.638 675.115 402.637 675.114 402.635Z" fill="url(#paint12_linear_2357_67520)"/>
<path d="M524.182 300.908L523.022 299.24C522.956 299.158 516.7 291.062 518.165 282.882C518.913 278.687 521.552 275.158 526.013 272.392C528.118 271.087 530.039 269.918 531.801 268.846C543.931 261.466 548.469 258.706 551.512 248.953L550.687 248.695C547.741 258.131 543.266 260.847 531.353 268.101C529.591 269.173 527.667 270.347 525.559 271.653C520.886 274.553 518.105 278.283 517.313 282.736C515.782 291.288 523.915 300.554 524.182 300.908Z" fill="#2F1A31"/>
<path d="M587.917 317.915L580.086 290.427L577.285 292.962L563.149 259.773L565.488 294.133L566.898 314.749L567.294 320.554C568.22 327.828 557.835 332.245 557.835 332.245C555.282 336.368 553.358 342.985 563.819 346.357C576.114 350.324 597.179 340.931 604.367 329.474C604.359 329.463 590.577 324.155 587.917 317.915Z" fill="url(#paint13_linear_2357_67520)"/>
<path d="M580.086 293.536C580.086 293.723 581.287 295.24 581.185 295.408C577.637 302.107 566.343 306.698 566.343 306.698L565.482 294.116C569.108 292.802 574.278 291.461 577.279 292.956C578.86 293.74 580.204 290.798 580.086 293.536Z" fill="#EDA06B"/>
<path d="M558.076 294.233C542.274 286.002 537.694 263.525 547.847 244.028C558 224.531 579.041 215.398 594.844 223.628C610.647 231.858 615.226 254.336 605.073 273.833C594.92 293.33 573.879 302.463 558.076 294.233Z" fill="url(#paint14_linear_2357_67520)"/>
<path d="M552.177 271.521C552.177 271.521 561.457 277.469 572.883 279.894C572.883 279.894 568.015 289.649 557.441 284.061C551.295 280.812 552.177 271.521 552.177 271.521Z" fill="#DB6B49"/>
<path d="M552.177 271.521C552.177 271.521 553.304 274.798 558.631 278.011C563.958 281.224 572.883 279.894 572.883 279.894C572.883 279.894 559.643 276.103 552.177 271.521Z" fill="white"/>
<path d="M578.192 257.235C578.079 257.131 578.001 256.994 577.97 256.843C577.939 256.693 577.957 256.536 578.019 256.396C578.082 256.255 578.188 256.138 578.321 256.061C578.454 255.984 578.608 255.95 578.761 255.965C578.997 255.99 584.552 256.018 586.207 262.233C586.259 262.42 586.236 262.621 586.142 262.791C586.048 262.961 585.89 263.088 585.704 263.143C585.316 263.253 584.992 262.997 584.797 262.64C582.853 259.066 578.813 257.447 578.615 257.417C578.458 257.404 578.309 257.34 578.192 257.235Z" fill="#060633"/>
<path d="M579.616 267.071C578.858 268.648 577.316 269.481 576.169 268.932C575.023 268.382 574.713 266.656 575.471 265.083C576.23 263.511 577.775 262.67 578.918 263.222C580.061 263.775 580.375 265.493 579.616 267.071Z" fill="#060633"/>
<path d="M553.974 249.126C553.868 249.086 553.772 249.023 553.694 248.94C553.617 248.857 553.559 248.757 553.526 248.648C553.498 248.556 553.489 248.459 553.498 248.364C553.508 248.268 553.536 248.175 553.581 248.09C553.627 248.005 553.689 247.93 553.763 247.87C553.837 247.809 553.923 247.763 554.015 247.735C554.244 247.667 559.389 245.578 563.289 250.69C563.408 250.844 563.463 251.038 563.44 251.231C563.418 251.424 563.322 251.601 563.171 251.724C562.852 251.974 562.454 251.861 562.138 251.606C558.985 249.047 554.628 249.085 554.441 249.132C554.289 249.18 554.125 249.178 553.974 249.126Z" fill="#060633"/>
<path d="M559.036 257.675C558.938 259.423 557.827 260.781 556.563 260.699C555.298 260.616 554.347 259.149 554.449 257.4C554.551 255.652 555.658 254.294 556.923 254.377C558.187 254.459 559.138 255.927 559.036 257.675Z" fill="#060633"/>
<path d="M572.115 223.818C572.115 223.818 551.501 241.867 585.062 247.114C602.26 249.803 604.975 275.152 593.456 280.358C573.611 289.306 553.48 356.594 619.189 346.797C635.433 344.375 630.903 328.883 663.978 333.446C681.149 335.816 636.656 319.331 634.966 297.648C633.185 274.756 674.667 226.768 622.542 211.685C615.67 209.697 592.126 207.256 587.019 207.339C547.287 207.982 550.03 238.835 550.03 238.835C550.03 238.835 558.76 226.707 572.115 223.818Z" fill="url(#paint15_linear_2357_67520)"/>
<path d="M715.083 376.663C718.381 384.547 706.678 391.713 683.66 401.839C660.643 411.966 650.864 415.212 647.557 407.337C644.25 399.462 652.452 389.008 675.384 378.7C692.209 371.113 711.76 368.779 715.083 376.663Z" fill="#453449"/>
<path d="M708.571 288.712L708.973 287.706C688.487 279.58 665.269 270.375 665.269 242.367C665.269 231.922 657.054 223.04 641.507 216.66C629.867 211.885 615.351 210.242 615.233 210.222L617.797 211.204C618.262 211.27 665.737 218.224 664.186 242.367C662.103 274.855 687.77 280.46 708.571 288.712Z" fill="#2F1A31"/>
<path d="M772.642 404.247C783.118 393.269 786.74 377.653 782.092 363.491C778.318 351.99 769.608 343.974 758.795 342.075C744.227 339.505 730.528 336.426 728.763 331.338C728.158 329.595 728.964 327.517 731.223 324.988C732.23 323.901 732.998 322.616 733.478 321.215C733.958 319.814 734.139 318.327 734.01 316.852C733.337 307.868 722.862 299.081 722.417 298.709L721.114 300.279C721.215 300.364 731.372 308.888 731.976 317.006C732.087 318.207 731.942 319.418 731.549 320.56C731.157 321.701 730.527 322.745 729.7 323.625C726.902 326.758 725.965 329.502 726.836 332.003C728.832 337.776 740.409 340.898 758.446 344.079C768.506 345.854 776.622 353.348 780.16 364.128C784.572 377.57 781.13 392.403 771.175 402.834L772.642 404.247Z" fill="#2F1A31"/>
<path d="M579.31 283.339C576.514 281.994 575.493 278.313 577.03 275.117C578.568 271.921 582.08 270.421 584.877 271.766C587.673 273.111 588.693 276.793 587.156 279.988C585.619 283.184 582.106 284.684 579.31 283.339Z" fill="#F29672"/>
<path d="M548.018 269.899C546.089 269.899 544.525 267.444 544.525 264.415C544.525 261.387 546.089 258.931 548.018 258.931C549.948 258.931 551.512 261.387 551.512 264.415C551.512 267.444 549.948 269.899 548.018 269.899Z" fill="#F29672"/>
<path d="M590.86 274.261C588.816 270.793 590.694 265.897 595.055 263.326C599.416 260.755 604.609 261.482 606.654 264.95C608.698 268.419 606.82 273.314 602.459 275.886C598.098 278.457 592.905 277.73 590.86 274.261Z" fill="url(#paint16_linear_2357_67520)"/>
<path opacity="0.16" d="M616.514 491.272C634.768 491.69 651.62 492.869 667.067 494.202C671.933 494.624 676.657 495.051 681.242 495.483L662.103 427.423C662.103 427.423 668.986 472.555 616.514 491.272Z" fill="#221B83"/>
<path d="M654.938 408.599V408.711C654.946 409.715 655.017 410.718 655.149 411.713C655.407 413.538 655.823 415.337 656.394 417.09C656.669 417.947 656.98 418.819 657.329 419.696C661.485 430.273 665.539 443.225 667.669 456.648C667.724 456.986 667.779 457.33 667.829 457.668C669.689 469.974 669.898 482.632 667.067 494.194C676.165 494.977 684.777 495.813 692.904 496.58C706.939 497.897 721.477 499.037 732.576 499.276C735.283 482.918 733.332 465.29 730.652 446.87C729.571 439.512 728.113 432.213 726.284 425.004C725.562 422.145 724.78 419.273 723.939 416.389C719.377 400.762 716.518 393.263 712.799 385.289C712.381 384.401 711.955 383.505 711.516 382.592C711.08 381.674 710.49 380.838 709.773 380.118C709.638 379.975 709.498 379.843 709.347 379.711C705.851 376.636 700.103 376.501 694.064 377.625C680.673 380.118 674.953 382.446 670.058 385.748C669.233 386.298 668.444 386.878 667.642 387.488C660.954 392.576 657.227 397.639 655.732 402.881C655.197 404.74 654.93 406.665 654.938 408.599Z" fill="url(#paint17_linear_2357_67520)"/>
<path d="M774.116 427.178C774.473 428.552 774.841 429.943 775.215 431.337C777.793 441.073 780.564 451.128 782.565 460.441C783.34 464.053 783.997 467.558 784.489 470.887C784.957 473.956 785.254 477.048 785.377 480.15C788.579 476.636 791.424 472.812 793.87 468.734C796.719 463.99 799.095 458.977 800.964 453.767C801.047 421.881 797.578 381.144 779.415 380.063C771.499 379.59 768.442 384.613 768.146 392.84C767.849 401.584 770.669 413.942 774.116 427.178Z" fill="url(#paint18_linear_2357_67520)"/>
<path d="M790.242 471.673C790.242 471.673 778.736 376.515 748.716 378.881C718.695 381.248 772.917 441.881 775.254 469.631L790.242 471.673Z" fill="url(#paint19_linear_2357_67520)"/>
<path d="M690.646 426.202C690.819 426.562 691 426.925 691.196 427.285C693.487 431.699 696.352 435.791 699.716 439.454C702.809 442.827 703.839 446.656 704.081 450.587C704.081 450.785 704.103 450.983 704.111 451.18C704.51 461.659 699.601 472.742 712.58 477.893C727.934 483.979 729.863 483.556 731.727 490.538C732.345 492.904 732.623 495.347 732.552 497.792C732.552 498.248 732.552 498.751 732.576 499.285C749.535 499.496 762.943 497.536 772.772 490.983C772.954 490.862 773.133 490.741 773.322 490.615C773.627 490.412 773.935 490.203 774.235 489.985C778.303 487.127 782.044 483.83 785.391 480.153C788.594 476.639 791.439 472.815 793.885 468.737C792.313 467.517 790.817 466.464 789.402 465.488C786.829 463.718 784.534 462.206 782.582 460.441C782.082 459.996 781.609 459.531 781.156 459.042C780.804 458.66 780.463 458.267 780.144 457.852C777.357 454.278 775.67 449.295 775.45 440.353C775.428 439.569 775.422 438.75 775.425 437.901C775.425 437.399 775.43 436.882 775.441 436.351C775.441 436.111 775.441 435.867 775.458 435.622C775.502 434.196 775.427 432.768 775.235 431.353C775.045 429.926 774.676 428.529 774.136 427.194C773.052 424.506 771.089 422.265 768.567 420.836C768.207 420.627 767.841 420.427 767.468 420.245C765.373 419.226 762.982 418.596 760.431 418.181L759.978 418.107H759.958C757.092 417.719 754.206 417.503 751.314 417.458C742.73 417.23 734.171 417.642 730.037 414.124C720.012 405.586 712.852 395.707 696.52 401.028C695.087 401.476 693.725 402.123 692.474 402.953C692.309 403.063 692.147 403.175 691.987 403.299C685.465 408.181 686.38 417.332 690.646 426.202Z" fill="url(#paint20_linear_2357_67520)"/>
<path d="M691.662 403.742C705.026 413.652 717.723 424.431 729.67 436.01C730.011 436.342 730.349 436.67 730.685 437.002C753.957 459.867 766.882 479.282 773.289 490.604C773.594 490.401 773.902 490.192 774.201 489.975C769.234 481.222 760.458 467.753 746.165 451.651C745.915 451.376 745.659 451.079 745.398 450.79C732.529 436.411 715.284 419.979 692.473 402.961C692.426 402.922 692.374 402.887 692.327 402.851L691.987 403.307L691.662 403.742Z" fill="#1F1F1F" fill-opacity="0.06"/>
<path d="M754.089 443.352C769.234 441.664 775.529 436.257 775.804 436.029L775.062 435.204C775.001 435.257 768.723 440.614 753.963 442.258L754.089 443.352Z" fill="#1F1F1F" fill-opacity="0.06"/>
<path d="M745.551 451.964C751.392 449.262 755.809 442.533 758.332 432.5C759.493 427.781 760.186 422.959 760.399 418.104L759.283 418.071C759.283 418.346 758.503 444.735 745.076 450.955L745.551 451.964Z" fill="#1F1F1F" fill-opacity="0.06"/>
<path d="M728.189 437.263C729.942 437.131 730.962 436.961 731.009 436.953L730.805 435.853C730.591 435.892 709.127 439.479 690.98 425.757L690.312 426.639C704.932 437.703 721.655 437.755 728.189 437.263Z" fill="#1F1F1F" fill-opacity="0.06"/>
<path d="M704.209 451.695C711.771 450.018 716.303 446.197 718.777 443.286C721.471 440.119 722.35 437.371 722.392 437.255L721.328 436.914C721.295 437.021 717.799 447.541 703.954 450.609L704.209 451.695Z" fill="#1F1F1F" fill-opacity="0.06"/>
<path d="M274.101 366.323C274.101 366.323 261.786 269.061 292.282 263.939C322.777 258.818 283.921 332.459 288.539 360.563L274.101 366.323Z" fill="url(#paint21_linear_2357_67520)"/>
<path opacity="0.16" d="M282.203 363.173C278.657 343.821 281.524 321.697 284.553 306.545C287.839 290.117 292.012 278.124 292.039 278.004L291.296 277.738C291.253 277.858 287.061 289.904 283.767 306.385C280.724 321.606 277.845 343.837 281.411 363.309L282.203 363.173Z" fill="white"/>
<path opacity="0.16" d="M284.251 355.121C289.906 336.278 302.539 317.856 312.14 305.722C322.548 292.568 331.732 283.768 331.823 283.68L331.289 283.115C331.198 283.203 321.974 292.043 311.53 305.24C301.886 317.43 289.197 335.937 283.505 354.903L284.251 355.121Z" fill="white"/>
<path d="M363.89 336.124C351.744 344.476 362.272 363.508 345.535 366.073C331.365 368.241 329.804 367.509 326.868 373.035C325.885 374.913 325.173 376.919 324.753 378.996C324.234 381.491 322.86 385.42 319.24 387.705C297.121 401.674 249.993 380.274 266.866 350.812C268.085 348.681 270.478 347.084 273.184 345.43C287.889 336.534 295.741 341.637 300.487 318.264C305.233 294.89 332.958 314.167 343.105 308.902C353.251 303.636 361.23 296.688 374.031 304.329C386.832 311.97 376.039 327.782 363.89 336.124Z" fill="url(#paint22_linear_2357_67520)"/>
<path opacity="0.16" d="M285.031 373.03L284.229 372.497C284.464 372.143 308.749 336.774 377.232 306.665L377.622 307.541C309.391 337.543 285.266 372.678 285.031 373.03Z" fill="white"/>
<path opacity="0.16" d="M317.057 328.901C304.558 324.552 300.266 318.78 300.093 318.53L300.895 317.968C300.935 318.024 305.215 323.755 317.396 327.995L317.057 328.901Z" fill="white"/>
<path opacity="0.16" d="M322.615 337.818C318.193 334.411 315.757 327.878 315.567 318.929C315.496 314.724 315.845 310.522 316.607 306.385L317.556 306.571C317.511 306.798 313.046 329.226 323.214 337.059L322.615 337.818Z" fill="white"/>
<path opacity="0.16" d="M340.181 328.77C338.721 328.32 337.889 327.971 337.852 327.971L338.237 327.087C338.411 327.162 355.883 334.337 373.925 326.264L374.32 327.14C359.778 333.634 345.608 330.448 340.181 328.77Z" fill="white"/>
<path opacity="0.16" d="M357.69 345.568C351.61 342.692 348.509 338.593 346.979 335.66C345.311 332.464 345.094 329.977 345.086 329.873L346.054 329.79C346.054 329.886 346.979 339.437 358.112 344.705L357.69 345.568Z" fill="white"/>
<path d="M257.874 265.367C257.874 265.367 248.784 281.137 272.911 293.641C297.038 306.145 294.691 331.865 278.793 339.216C262.896 346.567 217.056 336.02 214.16 336.926C211.265 337.831 202.947 306.196 202.947 306.196L216.401 276.321L257.874 265.367Z" fill="url(#paint23_linear_2357_67520)"/>
<path d="M235.721 189.552C235.721 189.552 212.899 177.386 188.221 192.948C163.543 208.51 185.51 235.13 146.269 234.672C117.963 234.342 84.6598 247.93 92.6807 276.417C100.702 304.904 71.6231 290.908 51.2793 318.349C30.9917 345.714 49.3249 390.168 82.5343 393.154C127.235 397.17 59.4955 394.877 111.225 414.112C162.955 433.346 208.024 304.513 208.024 304.513L235.721 189.552Z" fill="url(#paint24_linear_2357_67520)"/>
<path d="M112.365 243.53L112.212 242.436C134.545 239.367 159.859 235.889 166.682 208.169C169.225 197.838 179.556 191.033 196.558 188.492C209.29 186.591 224.115 188.492 224.235 188.492L221.447 188.841C220.971 188.796 172.102 184.154 167.757 208.427C161.915 241.093 135.045 240.411 112.365 243.53Z" fill="#2F1A31"/>
<path d="M274.332 404.91L276.963 453.649L277.765 468.564L279.54 501.469C288.275 500.62 296.539 499.541 304.167 498.217C323 494.952 337.943 490.198 346.485 483.691C346.264 482.754 346.042 481.818 345.817 480.884C341.935 464.747 337.796 449.324 333.786 435.442C326.866 411.472 320.35 392.067 316.303 381.51C315.394 379.137 314.61 377.211 313.974 375.778C313.338 374.345 312.846 373.405 312.53 373.011L282.47 374.915L275.808 399.469L274.332 404.91Z" fill="url(#paint25_linear_2357_67520)"/>
<path fill-rule="evenodd" clip-rule="evenodd" d="M114.294 376.36L62.795 360.872C62.795 360.872 91.8575 291.987 190.103 304.955C194.768 305.572 198.776 305.734 202.754 305.895C207.311 306.079 211.828 306.262 217.243 307.125C217.31 307.136 217.376 307.147 217.442 307.157C218.118 307.244 218.793 307.35 219.468 307.473C220.074 307.566 220.676 307.657 221.275 307.748C225.836 308.437 230.216 309.099 234.523 310.271C238.083 311.235 241.526 312.3 244.854 313.467C278.336 325.135 300.445 346.061 311.979 359.543C318.401 367.05 321.545 372.247 321.545 372.247C321.545 372.247 315.992 390.37 292.252 397.082C292.253 397.085 292.254 397.088 292.255 397.09C297.23 432.233 301.265 470.409 304.166 498.233C296.535 499.557 288.271 500.636 279.536 501.485C265.703 502.833 250.688 503.616 235.154 503.882C210.511 504.319 184.555 503.493 159.925 501.672C154.72 501.288 149.573 500.862 144.515 500.388C127.221 498.782 110.912 496.689 96.5788 494.209C95.9849 491.923 95.3301 489.503 94.668 487.056C91.9141 476.878 89.0327 466.229 89.8733 462.79C90.0417 462.086 92.7207 451.034 93.9052 446.293C93.9899 445.967 94.0728 445.64 94.1556 445.315C94.2453 444.962 94.3348 444.61 94.4265 444.258C96.2018 437.222 97.9958 430.321 99.8166 423.638C101.007 419.258 102.202 414.976 103.402 410.791C105.904 402.084 108.431 393.804 110.968 386.104C111.298 385.096 111.63 384.096 111.966 383.105C112.231 382.331 112.492 381.563 112.749 380.801C113.264 379.293 113.779 377.814 114.294 376.36Z" fill="url(#paint26_linear_2357_67520)"/>
<path d="M202.626 295.923L219.082 271.841L220.988 275.192L245.401 247.621L232.071 280.095L224.066 299.585L221.817 305.085C218.571 311.837 227.245 319.433 227.245 319.433C228.397 324.227 228.135 331.261 216.887 331.167C203.671 331.061 186.239 315.217 182.948 301.831C182.942 301.823 198.022 301.109 202.626 295.923Z" fill="url(#paint27_linear_2357_67520)"/>
<path d="M218.075 274.851C218.022 275.038 216.361 276.116 216.396 276.308C217.685 283.928 227.182 291.99 227.182 291.99L232.066 280.095C228.968 277.664 224.39 274.71 220.984 275.192C219.209 275.442 218.848 272.166 218.075 274.851Z" fill="#EDA06B"/>
<path d="M231.325 284.278C213.227 282.103 200.74 262.31 203.434 240.069C206.128 217.828 222.983 201.562 241.08 203.737C259.178 205.912 271.665 225.705 268.971 247.946C266.277 270.187 249.422 286.453 231.325 284.278Z" fill="url(#paint28_linear_2357_67520)"/>
<path d="M241.75 246.167C241.906 246.146 242.052 246.077 242.167 245.969C242.282 245.861 242.359 245.72 242.389 245.565C242.419 245.411 242.399 245.251 242.332 245.108C242.265 244.966 242.155 244.848 242.017 244.771C241.803 244.654 237.097 241.482 232.108 245.754C232.031 245.817 231.967 245.895 231.92 245.983C231.873 246.07 231.844 246.167 231.835 246.266C231.825 246.365 231.836 246.465 231.865 246.56C231.895 246.655 231.943 246.743 232.007 246.819C232.274 247.136 232.694 247.107 233.076 246.918C236.777 245.038 241.127 245.999 241.306 246.095C241.443 246.164 241.598 246.189 241.75 246.167Z" fill="#060633"/>
<path d="M232.43 252.202C232.162 253.965 232.98 255.555 234.267 255.75C235.553 255.944 236.812 254.684 237.085 252.91C237.357 251.137 236.534 249.557 235.248 249.363C233.962 249.168 232.7 250.439 232.43 252.202Z" fill="#060633"/>
<path d="M263.572 253.912C263.72 253.968 263.881 253.976 264.033 253.935C264.186 253.894 264.321 253.807 264.421 253.685C264.52 253.564 264.579 253.414 264.588 253.257C264.598 253.1 264.558 252.945 264.474 252.812C264.342 252.607 261.762 247.563 255.322 248.902C255.126 248.94 254.954 249.053 254.842 249.217C254.729 249.38 254.686 249.581 254.72 249.776C254.798 250.183 255.183 250.359 255.6 250.372C259.749 250.508 263.086 253.443 263.204 253.614C263.291 253.75 263.421 253.854 263.572 253.912Z" fill="#060633"/>
<path d="M256.58 260.025C255.468 259.356 255.316 257.576 256.241 256.048C257.166 254.52 258.818 253.824 259.931 254.492C261.043 255.161 261.195 256.942 260.27 258.469C259.345 259.997 257.693 260.694 256.58 260.025Z" fill="#060633"/>
<path d="M247.511 273.551C247.581 273.552 247.65 273.538 247.715 273.511C247.779 273.484 247.837 273.445 247.886 273.394C247.98 273.295 248.033 273.164 248.033 273.027C248.033 272.89 247.98 272.758 247.886 272.659C247.722 272.499 243.72 268.747 232.378 268.946C232.24 268.952 232.11 269.01 232.014 269.11C231.918 269.209 231.865 269.341 231.865 269.479C231.865 269.548 231.88 269.616 231.907 269.679C231.934 269.743 231.974 269.8 232.024 269.848C232.074 269.895 232.133 269.933 232.197 269.957C232.262 269.982 232.331 269.993 232.4 269.99C243.3 269.801 247.105 273.37 247.15 273.408C247.247 273.5 247.377 273.552 247.511 273.551Z" fill="#312433"/>
<path d="M255.529 216.396C255.529 216.396 266.742 241.993 233.386 232.246C216.299 227.249 202.725 249.448 211.12 259.241C225.584 276.113 214.863 346.892 158.326 309.312C144.346 300.02 155.3 287.707 122.697 277.541C105.773 272.265 154.139 276.404 165.16 257.151C176.796 236.821 159.337 174.558 214.155 183.304C221.373 184.457 244.236 192.439 248.928 194.735C285.415 212.593 269.408 239.833 269.408 239.833C269.408 239.833 266.63 224.868 255.529 216.396Z" fill="url(#paint29_linear_2357_67520)"/>
<path d="M202.679 245.546C199.272 241.661 199.025 236.323 202.128 233.623C205.23 230.923 210.507 231.883 213.914 235.768C217.321 239.653 217.568 244.991 214.465 247.691C211.363 250.391 206.086 249.431 202.679 245.546Z" fill="url(#paint30_linear_2357_67520)"/>
<path d="M130.69 437.253L144.515 500.375C149.574 500.849 154.72 501.275 159.926 501.658C184.556 503.48 210.511 504.306 235.154 503.869C234.587 503.749 233.606 503.528 232.278 503.19C218.281 499.621 165.474 482.719 144.272 426.789L130.69 437.253Z" fill="#576C6A" fill-opacity="0.24"/>
<path d="M61.905 363.034C59.8677 372.231 68.6186 377.531 103.702 385.848C138.786 394.166 152.579 396.331 155.389 387.324C157.039 382.048 141.093 372.409 106.063 363.868C80.3586 357.601 63.9397 353.838 61.905 363.034Z" fill="#453449"/>
<path d="M82.5218 483.505L84.1046 491.847C88.0616 492.667 92.2299 493.445 96.5772 494.209C115.108 497.405 136.949 499.975 159.924 501.666C153.903 464.723 147.82 429 143.644 408.487C142.617 403.445 141.706 399.322 140.941 396.329C140.569 394.872 140.227 393.679 139.928 392.778C139.628 391.878 139.016 391.031 138.858 390.064C136.388 374.521 70.8647 357.247 71.7497 372.952C71.7497 373.299 71.7497 373.65 71.7363 374.018C71.7363 374.284 71.7363 374.577 71.7363 374.862C71.6 395.812 75.1185 437.11 82.5218 483.505Z" fill="url(#paint31_linear_2357_67520)"/>
<path d="M278.9 71.918C278.9 71.918 265.62 42.6506 232.017 46.318C198.415 49.9854 202.415 79.3221 186.413 76.5708C170.411 73.8196 148.011 76.5708 143.21 94.9052C138.408 113.24 116.807 103.162 116.008 118.745C115.209 134.328 140.809 145.33 170.411 131.579C200.014 117.829 214.569 143.522 256.019 137.838C283.49 134.07 275.598 116.603 323.221 122.716C347.797 125.872 346.623 101.556 327.83 89.259C299.535 70.7488 283.699 89.6452 278.9 71.918Z" fill="url(#paint32_linear_2357_67520)"/>
<path d="M163.597 127.006C163.597 127.006 156.143 110.579 137.283 112.638C118.423 114.697 120.669 131.161 111.688 129.617C102.707 128.072 90.1358 129.617 87.4408 139.91C84.7458 150.204 72.6208 144.539 72.1743 153.288C71.7278 162.037 86.0933 168.203 102.707 160.493C119.321 152.782 121.522 165.199 144.871 162.717C168.22 160.234 171.03 154.993 186.374 161.26C199.245 166.512 205.466 149.488 198.025 143.474C184.922 132.874 166.292 136.954 163.597 127.006Z" fill="url(#paint33_linear_2357_67520)"/>
<g filter="url(#filter2_f_2357_67520)">
<path d="M233.184 85.8299L279.58 142.453L253.697 140.372L279.58 185.364L224.867 124.832L251.1 125.261L233.184 85.8299Z" fill="url(#paint34_linear_2357_67520)"/>
</g>
<path d="M233.184 85.8299L279.58 142.453L253.697 140.372L279.58 185.364L224.867 124.832L251.1 125.261L233.184 85.8299Z" fill="url(#paint35_linear_2357_67520)"/>
<path d="M23.4333 453.401C25.5291 457.469 28.0042 461.33 30.8259 464.936C31.6208 465.954 32.4434 466.943 33.2936 467.906C33.8578 468.553 34.4406 469.187 35.0342 469.807C35.3907 470.187 35.7588 470.565 36.1384 470.939C37.4075 472.223 38.7354 473.451 40.1221 474.623C40.3895 474.844 40.6302 475.057 40.8868 475.267L41.4884 475.763C42.8252 476.847 44.2289 477.893 45.6726 478.871C45.391 477.805 45.1504 476.681 44.9508 475.496C44.1807 471.017 43.9561 465.751 44.0631 460.02C44.0809 458.917 44.113 457.798 44.1594 456.661C44.1594 456.464 44.1594 456.267 44.1808 456.067C44.6594 444.444 46.2261 431.325 47.2955 419.185C49.5307 393.817 49.6002 372.718 33.037 378.436C14.3429 384.895 17.7143 423.505 23.4333 453.401Z" fill="url(#paint36_linear_2357_67520)"/>
<path opacity="0.16" d="M33.7617 462.901C33.85 463.434 33.9382 463.991 34.0291 464.534C34.3285 466.297 34.6601 468.055 35.0237 469.807C35.3802 470.187 35.7483 470.565 36.1279 470.939C35.5076 468.114 34.9809 465.261 34.5237 462.417C34.5263 462.401 34.5263 462.385 34.5237 462.369C32.4169 448.786 32.1549 435.245 32.4758 424.688C33.0105 406.806 35.275 393.436 35.2991 393.306L34.4676 393.17C34.4435 393.303 32.1709 406.729 31.6335 424.672C31.318 435.36 31.5854 449.135 33.7617 462.901Z" fill="white"/>
<path d="M33.2858 467.906C33.8499 468.553 34.4328 469.187 35.0263 469.807C35.3828 470.187 35.7509 470.565 36.1305 470.939C37.3996 472.223 38.7275 473.451 40.1142 474.623C40.3816 474.844 40.6222 475.057 40.8789 475.267L41.4805 475.763L44.9428 475.496L48.0817 475.257C49.4051 466.034 56.2604 453.758 64.1904 441.035C64.3802 440.729 64.5701 440.423 64.7653 440.117C65.816 438.433 66.8881 436.742 67.9736 435.056C68.2357 434.644 68.503 434.233 68.7757 433.823C71.9841 428.781 75.2513 423.748 78.2725 418.882C91.1916 398.081 99.822 380.311 82.962 377.994C67.9896 375.935 55.9583 396.39 47.309 419.188C41.4645 434.58 37.1652 451.042 34.5451 462.358C34.5419 462.38 34.5366 462.401 34.529 462.422L34.0477 464.537C33.759 465.733 33.5104 466.859 33.2858 467.906Z" fill="url(#paint37_linear_2357_67520)"/>
<path opacity="0.16" d="M40.1136 474.623C40.3809 474.844 40.6216 475.057 40.8783 475.267C41.5816 470.116 42.6447 465.021 44.0599 460.017C44.5625 458.195 45.108 456.384 45.6828 454.586C47.2255 449.771 49.0035 445.062 50.8884 440.569C51.5318 439.03 52.1869 437.521 52.8535 436.042L53.292 435.075C55.7972 429.556 58.3933 424.453 60.8183 419.987C61.0055 419.638 61.1926 419.297 61.3798 418.956C70.0049 403.264 78.1115 392.374 78.1943 392.267L77.5152 391.769C77.4323 391.878 69.2911 402.814 60.6391 418.559C60.3076 419.169 59.9681 419.787 59.6259 420.424C57.3426 424.659 54.9283 429.437 52.5915 434.574C52.4445 434.899 52.2974 435.221 52.153 435.549C51.8134 436.303 51.4766 437.059 51.145 437.829C48.5643 443.719 46.3088 449.745 44.3887 455.881C44.3058 456.147 44.2257 456.413 44.1481 456.68C42.3366 462.547 40.9876 468.546 40.1136 474.623Z" fill="white"/>
<path d="M30.8183 464.936C31.6133 465.954 32.4359 466.943 33.2861 467.906C33.8502 468.553 34.4331 469.187 35.0266 469.807C35.3831 470.187 35.7512 470.565 36.1308 470.939C37.3999 472.223 38.7278 473.451 40.1145 474.623C40.3819 474.844 40.6225 475.057 40.8792 475.267L41.4808 475.763C42.8176 476.847 44.2212 477.893 45.665 478.871C45.9324 479.049 46.1784 479.222 46.4404 479.403C47.9397 480.381 49.5058 481.253 51.1273 482.014C51.4348 482.163 51.7476 482.312 52.0658 482.453C59.5894 485.891 70.6315 489.063 84.1013 491.855C85.308 492.105 86.5334 492.352 87.7776 492.595C87.93 490.777 88.2962 488.983 88.8684 487.25C90.9753 480.911 92.7372 481.409 107.292 476.623C119.591 472.567 115.648 462.068 116.589 452.421C116.607 452.24 116.626 452.062 116.648 451.888C117.075 448.277 118.252 444.799 121.297 441.85C124.61 438.644 127.484 435.016 129.845 431.061C130.035 430.736 130.222 430.414 130.404 430.089C134.834 422.134 136.181 413.728 130.404 408.878C130.267 408.761 130.136 408.649 129.981 408.537C128.866 407.702 127.638 407.028 126.334 406.534C111.49 400.744 104.322 409.464 94.5713 416.807C91.1571 419.374 84.9462 419.153 78.2621 418.871C74.396 418.709 70.3748 418.527 66.6585 418.855H66.6425L66.2254 418.898C64.3943 419.057 62.586 419.414 60.8326 419.963C60.4262 420.094 60.0305 420.229 59.6428 420.4C54.9158 422.333 51.6219 426.296 51.3545 434.18C51.3545 434.409 51.3385 434.633 51.3305 434.856C51.2904 435.89 51.2342 436.87 51.1647 437.805C51.0925 438.769 51.007 439.682 50.8973 440.551C50.0765 447.635 48.2879 451.67 45.6918 454.568C45.2861 455.018 44.8568 455.446 44.4057 455.851L44.1865 456.046C41.5771 458.339 38.3259 459.985 34.5454 462.385L34.5213 462.401L33.77 462.883C32.8128 463.522 31.8316 464.19 30.8183 464.936Z" fill="url(#paint38_linear_2357_67520)"/>
<path opacity="0.16" d="M51.1324 482.005C51.4399 482.155 51.7527 482.304 52.0709 482.445C59.0838 472.122 71.781 456.118 92.7103 437.893C93.0418 437.608 93.3706 437.32 93.7075 437.032C105.404 426.994 117.751 417.733 130.668 409.31L130.401 408.883L130.115 408.452L129.978 408.543C107.921 423.02 91.0525 437.253 78.3501 449.824C78.0827 450.091 77.8394 450.328 77.5881 450.581C64.8562 463.288 56.3968 474.244 51.1324 482.005Z" fill="white"/>
<path opacity="0.16" d="M70.6903 442.487C56.7499 440.111 51.2048 434.782 50.9748 434.555L51.7074 433.823C51.7609 433.876 57.2873 439.15 70.8721 441.475L70.6903 442.487Z" fill="white"/>
<path opacity="0.16" d="M78.1392 450.895C72.8748 448.088 69.145 441.637 67.3537 432.252C66.5349 427.833 66.1552 423.345 66.2201 418.852L67.2547 418.882C67.2547 419.129 66.5302 443.539 78.6338 449.997L78.1392 450.895Z" fill="white"/>
<path opacity="0.16" d="M95.0204 438.271C93.4028 438.052 92.4697 437.839 92.427 437.831L92.6729 436.833C92.8708 436.878 112.562 441.36 130.117 429.668L130.689 430.518C116.543 439.933 101.047 439.078 95.0204 438.271Z" fill="white"/>
<path opacity="0.16" d="M116.456 452.885C109.539 450.927 105.544 447.156 103.411 444.338C101.088 441.27 100.416 438.684 100.387 438.577L101.392 438.311C101.419 438.412 104.085 448.306 116.747 451.894L116.456 452.885Z" fill="white"/>
<defs>
<filter id="filter0_d_2357_67520" x="301" y="194" width="206" height="206" filterUnits="userSpaceOnUse" color-interpolation-filters="sRGB">
<feFlood flood-opacity="0" result="BackgroundImageFix"/>
<feColorMatrix in="SourceAlpha" type="matrix" values="0 0 0 0 0 0 0 0 0 0 0 0 0 0 0 0 0 0 127 0" result="hardAlpha"/>
<feOffset dy="8"/>
<feGaussianBlur stdDeviation="16"/>
<feColorMatrix type="matrix" values="0 0 0 0 0.368627 0 0 0 0 0.380392 0 0 0 0 0.854902 0 0 0 0.24 0"/>
<feBlend mode="normal" in2="BackgroundImageFix" result="effect1_dropShadow_2357_67520"/>
<feBlend mode="normal" in="SourceGraphic" in2="effect1_dropShadow_2357_67520" result="shape"/>
</filter>
<filter id="filter1_f_2357_67520" x="413" y="0" width="372" height="372" filterUnits="userSpaceOnUse" color-interpolation-filters="sRGB">
<feFlood flood-opacity="0" result="BackgroundImageFix"/>
<feBlend mode="normal" in="SourceGraphic" in2="BackgroundImageFix" result="shape"/>
<feGaussianBlur stdDeviation="32" result="effect1_foregroundBlur_2357_67520"/>
</filter>
<filter id="filter2_f_2357_67520" x="192.866" y="53.8299" width="118.714" height="163.534" filterUnits="userSpaceOnUse" color-interpolation-filters="sRGB">
<feFlood flood-opacity="0" result="BackgroundImageFix"/>
<feBlend mode="normal" in="SourceGraphic" in2="BackgroundImageFix" result="shape"/>
<feGaussianBlur stdDeviation="16" result="effect1_foregroundBlur_2357_67520"/>
</filter>
<linearGradient id="paint0_linear_2357_67520" x1="612" y1="78.618" x2="612" y2="506" gradientUnits="userSpaceOnUse">
<stop stop-color="#C5D6F1"/>
<stop offset="1" stop-color="#F8FAFF"/>
</linearGradient>
<linearGradient id="paint1_linear_2357_67520" x1="192.723" y1="79.8574" x2="192.723" y2="505.913" gradientUnits="userSpaceOnUse">
<stop stop-color="#D9DDE4"/>
<stop offset="1" stop-color="#F5F5F5"/>
</linearGradient>
<linearGradient id="paint2_linear_2357_67520" x1="337.5" y1="277.463" x2="296.281" y2="332.025" gradientUnits="userSpaceOnUse">
<stop stop-color="#A3C7D9"/>
<stop offset="1" stop-color="#91B8CC"/>
</linearGradient>
<linearGradient id="paint3_linear_2357_67520" x1="338.569" y1="288.999" x2="454.084" y2="246.895" gradientUnits="userSpaceOnUse">
<stop stop-color="#5E61DA"/>
<stop offset="1" stop-color="#8C52D6"/>
</linearGradient>
<linearGradient id="paint4_linear_2357_67520" x1="528" y1="314" x2="539.5" y2="360" gradientUnits="userSpaceOnUse">
<stop stop-color="#C3DBD8"/>
<stop offset="1" stop-color="#B2C9C6"/>
</linearGradient>
<linearGradient id="paint5_linear_2357_67520" x1="498.5" y1="317" x2="525" y2="379" gradientUnits="userSpaceOnUse">
<stop stop-color="#A8CEC7"/>
<stop offset="1" stop-color="#9BBCB6"/>
</linearGradient>
<linearGradient id="paint6_linear_2357_67520" x1="467" y1="342" x2="487.921" y2="407.776" gradientUnits="userSpaceOnUse">
<stop stop-color="#DEE2AF"/>
<stop offset="0.677083" stop-color="#CBD091"/>
</linearGradient>
<linearGradient id="paint7_linear_2357_67520" x1="599" y1="64" x2="599" y2="308" gradientUnits="userSpaceOnUse">
<stop stop-color="#FFDD9A"/>
<stop offset="1" stop-color="#FFFBD2"/>
</linearGradient>
<radialGradient id="paint8_radial_2357_67520" cx="0" cy="0" r="1" gradientUnits="userSpaceOnUse" gradientTransform="translate(615 191) rotate(102.529) scale(73.7564 109.198)">
<stop stop-color="#FFFACC"/>
<stop offset="1" stop-color="#FFDD9A"/>
</radialGradient>
<linearGradient id="paint9_linear_2357_67520" x1="494.694" y1="368.678" x2="494.694" y2="504.086" gradientUnits="userSpaceOnUse">
<stop stop-color="#FFC9A2"/>
<stop offset="1" stop-color="#F7B686"/>
</linearGradient>
<linearGradient id="paint10_linear_2357_67520" x1="560" y1="293" x2="536.326" y2="332.989" gradientUnits="userSpaceOnUse">
<stop stop-color="#2F1A31"/>
<stop offset="1" stop-color="#534428"/>
</linearGradient>
<linearGradient id="paint11_linear_2357_67520" x1="678.5" y1="308.5" x2="739.031" y2="430.187" gradientUnits="userSpaceOnUse">
<stop stop-color="#2F1A31"/>
<stop offset="1" stop-color="#502853"/>
</linearGradient>
<linearGradient id="paint12_linear_2357_67520" x1="594.779" y1="329.018" x2="594.779" y2="503.79" gradientUnits="userSpaceOnUse">
<stop stop-color="#5E61DA"/>
<stop offset="1" stop-color="#8C52D6"/>
</linearGradient>
<linearGradient id="paint13_linear_2357_67520" x1="580.094" y1="259.773" x2="580.094" y2="347.282" gradientUnits="userSpaceOnUse">
<stop stop-color="#FFC9A2"/>
<stop offset="1" stop-color="#F7B686"/>
</linearGradient>
<linearGradient id="paint14_linear_2357_67520" x1="594.844" y1="223.628" x2="558.073" y2="294.231" gradientUnits="userSpaceOnUse">
<stop stop-color="#FFC9A2"/>
<stop offset="1" stop-color="#F7B686"/>
</linearGradient>
<linearGradient id="paint15_linear_2357_67520" x1="641" y1="278" x2="594.463" y2="201.712" gradientUnits="userSpaceOnUse">
<stop stop-color="#2F1A31"/>
<stop offset="1" stop-color="#403341"/>
</linearGradient>
<linearGradient id="paint16_linear_2357_67520" x1="606.654" y1="264.95" x2="590.86" y2="274.26" gradientUnits="userSpaceOnUse">
<stop stop-color="#FFC9A2"/>
<stop offset="1" stop-color="#F7B686"/>
</linearGradient>
<linearGradient id="paint17_linear_2357_67520" x1="694.407" y1="376.979" x2="694.407" y2="499.276" gradientUnits="userSpaceOnUse">
<stop stop-color="#FFC9A2"/>
<stop offset="1" stop-color="#F7B686"/>
</linearGradient>
<linearGradient id="paint18_linear_2357_67520" x1="791.5" y1="380" x2="783" y2="427" gradientUnits="userSpaceOnUse">
<stop stop-color="#D5D7AC"/>
<stop offset="1" stop-color="#C4C784"/>
</linearGradient>
<linearGradient id="paint19_linear_2357_67520" x1="767" y1="376" x2="783.5" y2="464" gradientUnits="userSpaceOnUse">
<stop stop-color="#DADAA2"/>
<stop offset="1" stop-color="#BFBF7A"/>
</linearGradient>
<linearGradient id="paint20_linear_2357_67520" x1="705.5" y1="406.5" x2="774" y2="499" gradientUnits="userSpaceOnUse">
<stop stop-color="#DEE2AF"/>
<stop offset="1" stop-color="#CAD088"/>
</linearGradient>
<linearGradient id="paint21_linear_2357_67520" x1="296.5" y1="269" x2="284" y2="315" gradientUnits="userSpaceOnUse">
<stop stop-color="#B6D2E3"/>
<stop offset="1" stop-color="#9BBED2"/>
</linearGradient>
<linearGradient id="paint22_linear_2357_67520" x1="380" y1="314" x2="305.5" y2="358" gradientUnits="userSpaceOnUse">
<stop stop-color="#B6D2E3"/>
<stop offset="1" stop-color="#A4CAE1"/>
</linearGradient>
<linearGradient id="paint23_linear_2357_67520" x1="230.32" y1="321.754" x2="263.877" y2="274.165" gradientUnits="userSpaceOnUse">
<stop stop-color="#2F1A31"/>
<stop offset="1" stop-color="#514652"/>
</linearGradient>
<linearGradient id="paint24_linear_2357_67520" x1="136.5" y1="275.5" x2="67" y2="381" gradientUnits="userSpaceOnUse">
<stop stop-color="#2F1A31"/>
<stop offset="1" stop-color="#403341"/>
</linearGradient>
<linearGradient id="paint25_linear_2357_67520" x1="310.409" y1="373.011" x2="310.409" y2="501.469" gradientUnits="userSpaceOnUse">
<stop stop-color="#FFC9A2"/>
<stop offset="1" stop-color="#F7B686"/>
</linearGradient>
<linearGradient id="paint26_linear_2357_67520" x1="192.17" y1="303.329" x2="192.17" y2="503.997" gradientUnits="userSpaceOnUse">
<stop stop-color="#A78783"/>
<stop offset="1" stop-color="#656C71"/>
</linearGradient>
<linearGradient id="paint27_linear_2357_67520" x1="214.175" y1="247.621" x2="214.175" y2="331.168" gradientUnits="userSpaceOnUse">
<stop stop-color="#FFC9A2"/>
<stop offset="1" stop-color="#F7B686"/>
</linearGradient>
<linearGradient id="paint28_linear_2357_67520" x1="241.08" y1="203.737" x2="231.399" y2="284.287" gradientUnits="userSpaceOnUse">
<stop stop-color="#FFC9A2"/>
<stop offset="1" stop-color="#F7B686"/>
</linearGradient>
<linearGradient id="paint29_linear_2357_67520" x1="167" y1="284" x2="228" y2="200" gradientUnits="userSpaceOnUse">
<stop stop-color="#2F1A31"/>
<stop offset="1" stop-color="#403341"/>
</linearGradient>
<linearGradient id="paint30_linear_2357_67520" x1="213.914" y1="235.768" x2="202.716" y2="245.589" gradientUnits="userSpaceOnUse">
<stop stop-color="#FFC9A2"/>
<stop offset="1" stop-color="#F7B686"/>
</linearGradient>
<linearGradient id="paint31_linear_2357_67520" x1="115.828" y1="366.755" x2="115.828" y2="501.666" gradientUnits="userSpaceOnUse">
<stop stop-color="#FFC9A2"/>
<stop offset="1" stop-color="#F7B686"/>
</linearGradient>
<linearGradient id="paint32_linear_2357_67520" x1="211" y1="125" x2="337" y2="92" gradientUnits="userSpaceOnUse">
<stop stop-color="#A0A8A8"/>
<stop offset="1" stop-color="#9A9AB1"/>
</linearGradient>
<linearGradient id="paint33_linear_2357_67520" x1="201" y1="159" x2="80" y2="131" gradientUnits="userSpaceOnUse">
<stop stop-color="#686868"/>
<stop offset="1" stop-color="#8F8F8F"/>
</linearGradient>
<linearGradient id="paint34_linear_2357_67520" x1="252.223" y1="85.8299" x2="252.223" y2="185.364" gradientUnits="userSpaceOnUse">
<stop stop-color="#FFDD9A"/>
<stop offset="1" stop-color="#FFFBD2"/>
</linearGradient>
<linearGradient id="paint35_linear_2357_67520" x1="252.223" y1="85.8299" x2="252.223" y2="185.364" gradientUnits="userSpaceOnUse">
<stop stop-color="#FFDC9F"/>
<stop offset="1" stop-color="#FDFF9F"/>
</linearGradient>
<linearGradient id="paint36_linear_2357_67520" x1="33.6366" y1="377.492" x2="33.6366" y2="478.871" gradientUnits="userSpaceOnUse">
<stop stop-color="#8EB9DD"/>
<stop offset="1" stop-color="#67A0D0"/>
</linearGradient>
<linearGradient id="paint37_linear_2357_67520" x1="79.5" y1="378" x2="50.5" y2="476" gradientUnits="userSpaceOnUse">
<stop stop-color="#67A2C9"/>
<stop offset="1" stop-color="#5290B9"/>
</linearGradient>
<linearGradient id="paint38_linear_2357_67520" x1="125" y1="413" x2="48" y2="493" gradientUnits="userSpaceOnUse">
<stop stop-color="#8EB9DD"/>
<stop offset="1" stop-color="#5A96C8"/>
</linearGradient>
<clipPath id="clip0_2357_67520">
<rect width="142" height="142" fill="white" transform="translate(333 218)"/>
</clipPath>
</defs>
</svg>
